<svg width="500" height="300" xmlns="http://www.w3.org/2000/svg"><title>icons</title><g fill="none" fill-rule="evenodd"><path d="M107.92 61.756h.953V70.1h-.953v-8.344zM112.546 61.756h.897l4.778 6.736v-6.736h.854V70.1h-.902l-4.776-6.665V70.1h-.85v-8.344M125.532 61.594c.266 0 .567.034.904.098.34.066.664.204.97.414.308.21.58.51.813.897.232.39.378.902.44 1.538h-.966c-.083-.464-.208-.832-.362-1.102-.156-.266-.336-.467-.533-.602-.198-.137-.414-.224-.64-.264-.22-.04-.444-.06-.663-.06-.255 0-.495.036-.72.108-.22.07-.417.163-.584.284-.168.12-.3.263-.397.426-.098.162-.144.338-.144.523 0 .258.072.463.22.62.148.153.342.287.585.395.238.108.514.197.82.27.31.067.623.145.943.225.32.08.634.178.94.292.307.112.58.258.823.437.24.178.437.406.583.682.15.275.222.614.222 1.02 0 .37-.078.708-.24 1.012-.154.304-.384.56-.678.777-.296.21-.653.378-1.07.493-.414.118-.884.176-1.402.176-.542 0-1.01-.087-1.398-.256-.388-.17-.71-.4-.96-.688-.252-.288-.44-.624-.554-1.008-.118-.384-.176-.792-.176-1.217h.934c0 .387.053.72.16 1 .112.28.26.514.45.7.195.187.42.325.676.413.265.09.552.134.864.134.35 0 .67-.026.962-.08.292-.054.544-.142.753-.263.212-.12.373-.276.488-.465.12-.19.175-.423.175-.694 0-.397-.124-.702-.372-.915-.247-.214-.56-.383-.936-.507-.38-.125-.79-.234-1.228-.326-.44-.092-.848-.22-1.227-.38-.378-.16-.694-.38-.942-.664-.248-.282-.373-.677-.373-1.183 0-.386.082-.724.25-1.008.168-.283.387-.518.657-.704.267-.185.57-.324.91-.414.34-.09.68-.132 1.02-.132M137.868 61.756v.92h-2.76V70.1h-.935v-7.423h-2.75v-.92h6.445M140.992 61.756h.956V70.1h-.956v-8.344zM151.49 61.756v.92h-2.76V70.1h-.934v-7.423h-2.747v-.92h6.44M155.286 61.756v5.792c0 .296.068.554.193.774.132.22.303.41.516.56.216.153.462.264.744.338.283.074.576.11.89.11.314 0 .61-.04.896-.122.286-.082.536-.197.752-.348.214-.153.386-.338.515-.56.128-.222.192-.472.192-.752v-5.792h.933v5.99c0 .42-.1.787-.298 1.1-.2.316-.453.576-.77.782-.314.207-.668.36-1.06.467-.394.102-.78.157-1.16.157-.38 0-.765-.055-1.154-.157-.387-.106-.74-.26-1.052-.467-.316-.206-.57-.466-.772-.78-.197-.315-.296-.683-.296-1.102v-5.99h.93M170.29 61.756v.92h-2.764V70.1h-.936v-7.423h-2.746v-.92h6.445M179.318 61.756v.92h-5.187v2.518h4.895v.944h-4.894v3.042h5.2v.92h-6.128v-8.344h6.116M209.757 61.754v.923h-2.76v7.42h-.936v-7.42h-2.745v-.923h6.442M218.787 61.754v.923H213.6v2.517h4.895v.944H213.6v3.04h5.198v.92h-6.127v-8.344h6.117M225.66 61.594c.484 0 .926.05 1.333.156.4.104.758.275 1.066.506.302.234.56.54.76.916.203.376.345.832.432 1.37h-.942c-.063-.38-.182-.702-.36-.963-.17-.262-.385-.47-.632-.63-.252-.16-.518-.273-.802-.338-.29-.064-.575-.1-.856-.1-.357 0-.71.06-1.062.182-.357.12-.672.314-.95.582-.28.268-.507.617-.684 1.05-.173.43-.26.96-.26 1.59 0 .63.087 1.16.26 1.597.177.435.403.787.685 1.052.276.27.59.464.948.584.35.118.705.18 1.062.18.304 0 .603-.042.9-.127.296-.087.566-.22.814-.402.25-.182.46-.415.64-.7.172-.284.288-.623.352-1.02h.93c-.068.546-.217 1.017-.444 1.417-.233.4-.51.73-.838.99-.33.26-.704.453-1.11.578-.408.124-.82.187-1.244.187-.603 0-1.152-.093-1.634-.275-.486-.183-.9-.455-1.242-.816-.344-.36-.605-.81-.786-1.35-.184-.54-.275-1.17-.275-1.894 0-.722.093-1.354.282-1.893.19-.54.454-.99.8-1.354.343-.362.755-.63 1.24-.81.48-.178 1.018-.266 1.615-.266M233.562 61.754V65.3h4.617v-3.546h.93v8.344h-.93v-3.856h-4.618v3.856h-.95v-8.344h.95M242.62 61.754h.896l4.776 6.738v-6.738h.852v8.344h-.9l-4.777-6.665v6.665h-.848v-8.344M256.32 62.513c-.354 0-.713.06-1.07.18-.357.12-.678.315-.964.583-.28.268-.514.617-.69 1.05-.18.43-.27.96-.27 1.59 0 .63.09 1.16.27 1.597.176.435.41.787.69 1.052.286.27.607.464.963.584.357.118.716.18 1.07.18.367 0 .725-.062 1.072-.18.354-.12.662-.316.938-.59.27-.27.49-.624.656-1.06.165-.434.25-.963.25-1.584 0-.63-.085-1.16-.255-1.59-.172-.433-.394-.782-.665-1.05-.273-.268-.584-.462-.933-.582-.35-.12-.702-.18-1.06-.18zm0-.92c.585 0 1.113.087 1.59.26.48.177.887.444 1.225.8.337.36.6.81.787 1.35.19.546.28 1.183.28 1.913s-.09 1.366-.273 1.904c-.184.543-.443.993-.777 1.354-.334.36-.743.63-1.223.808-.484.18-1.018.27-1.61.27-.604 0-1.15-.093-1.64-.275-.49-.183-.908-.455-1.254-.816-.345-.36-.61-.81-.798-1.35-.19-.54-.28-1.17-.28-1.894 0-.722.097-1.354.284-1.893.192-.54.46-.99.815-1.354.346-.362.763-.63 1.247-.81.486-.178 1.03-.266 1.627-.266zM264.293 61.754v7.424h4.23v.92h-5.187v-8.344h.957M275.13 62.513c-.358 0-.715.06-1.07.18-.36.12-.678.315-.963.583-.284.268-.516.617-.695 1.05-.178.43-.266.96-.266 1.59 0 .63.088 1.16.266 1.597.18.435.41.787.695 1.052.285.27.603.464.962.584.355.118.712.18 1.07.18.364 0 .722-.062 1.072-.18.348-.12.66-.316.933-.59.27-.27.49-.624.66-1.06.166-.434.25-.963.25-1.584 0-.63-.084-1.16-.257-1.59-.172-.433-.392-.782-.664-1.05s-.583-.462-.936-.582c-.347-.12-.703-.18-1.06-.18zm0-.92c.585 0 1.112.087 1.59.26.48.177.888.444 1.222.8.34.36.602.81.79 1.35.186.546.28 1.183.28 1.913s-.094 1.366-.275 1.904c-.184.543-.44.993-.773 1.354-.34.36-.745.63-1.228.808-.48.18-1.017.27-1.607.27-.606 0-1.154-.093-1.643-.275-.49-.183-.907-.455-1.254-.816-.345-.36-.612-.81-.797-1.35-.186-.54-.277-1.17-.277-1.894 0-.722.092-1.354.283-1.893.188-.54.458-.99.81-1.354.348-.362.766-.63 1.252-.81.482-.178 1.028-.266 1.624-.266zM281.945 65.916c0-.722.094-1.354.283-1.893.186-.54.452-.99.8-1.354.344-.362.757-.63 1.24-.81.48-.178 1.018-.266 1.616-.266.483 0 .925.05 1.332.156.4.104.758.275 1.066.506.304.234.56.54.762.916.2.376.344.832.432 1.37h-.944c-.062-.38-.18-.702-.36-.963-.17-.262-.384-.47-.63-.63-.253-.16-.52-.273-.806-.338-.287-.064-.57-.1-.852-.1-.358 0-.713.06-1.063.182-.355.12-.67.314-.948.582-.283.268-.508.617-.684 1.05-.174.43-.264.96-.264 1.59 0 .63.107 1.16.323 1.59.213.433.485.785.813 1.055.333.274.694.47 1.087.59.392.118.764.18 1.124.18.12 0 .275-.006.478-.018.2-.012.417-.028.648-.046.226-.02.45-.046.665-.075.214-.03.387-.066.515-.105v-2.39h-1.92v-.92h2.856v4.055c-.226.078-.49.145-.796.198-.308.056-.616.1-.924.13-.308.03-.594.054-.868.07-.27.015-.49.024-.65.024-.598 0-1.16-.09-1.686-.27-.526-.178-.98-.448-1.366-.808-.39-.36-.7-.815-.928-1.36-.23-.543-.347-1.175-.347-1.898M295.76 65.86l2.476-4.106h1.144l-3.143 5V70.1h-.937v-3.343l-3.17-5h1.168l2.46 4.104M108 75h192v1H108v-1zM189.767 63.516c-1.413 0-2.233 1.58-2.233 3.625 0 .985.44 1.39 1.233 1.39 1.46 0 2.228-1.72 2.228-3.65 0-.995-.57-1.364-1.228-1.364m-1.188 5.832c-1.365 0-2.132-.843-2.132-2.27 0-2.498 1.5-4.366 3.496-4.366 1.466 0 2.135.92 2.135 2.284 0 2.436-1.445 4.352-3.5 4.352M197.614 61.105c-.28-.186-.596-.286-.937-.286-.55 0-.932.392-1.084 1.11l-.177.968h1.74l-.442.746h-1.434l-1.134 5.717c-.23 1.164-.496 1.843-.974 2.448l-.808-.44c.392-.54.63-1.124.822-2.093l1.097-5.63h-.646l.147-.747h.638l.165-.844c.167-.83.473-1.376.96-1.69.336-.232.73-.315 1.192-.315.54 0 .92.098 1.235.314l-.36.74M133.473 31.518l-1.236.617-3.477-3.875c-.582-.442-1.14-.852-1.67-1.234-.533-.38-1.058-.72-1.587-1.014-.617-.323-1.253-.586-1.915-.792-.66-.205-1.386-.322-2.182-.35-.674-.03-1.35.012-2.026.13-.672.116-1.308.294-1.89.527-.618.266-1.164.59-1.632.97-.47.383-.838.836-1.098 1.366-.3.676-.444 1.278-.444 1.806 0 .526.09 1.005.264 1.43.18.426.418.792.727 1.1.307.31.625.58.945.816.706.5 1.457.902 2.25 1.21.792.31 1.6.567 2.42.77.94.237 1.894.45 2.864.64.968.19 1.925.405 2.862.638.85.237 1.674.478 2.467.727.793.252 1.524.554 2.2.905.677.35 1.295.763 1.85 1.232.558.472 1.042 1.027 1.457 1.675.382.586.652 1.24.813 1.96.16.72.242 1.432.242 2.134 0 .705-.08 1.387-.242 2.05-.16.66-.344 1.24-.55 1.74-.383.764-.833 1.45-1.345 2.068-.512.618-1.08 1.16-1.693 1.63-.707.53-1.442.966-2.205 1.322-.762.35-1.51.63-2.248.836-.673.203-1.334.345-1.978.416-.647.073-1.282.113-1.894.113-.618-.03-1.25-.083-1.895-.156-.648-.072-1.307-.152-1.98-.24-.53-.088-1.074-.236-1.63-.442-.56-.205-1.117-.438-1.673-.702-.412-.207-.825-.427-1.235-.662-.41-.234-.81-.455-1.19-.66l-.616 2.114h-1.892l-2.864-10.395 1.63-.263c.41.733.847 1.447 1.322 2.136.467.69.952 1.357 1.45 2.005.53.645 1.094 1.254 1.695 1.827.6.573 1.27 1.09 2.006 1.562.735.47 1.48.835 2.225 1.102.75.262 1.49.44 2.223.527.736.09 1.445.117 2.14.09.686-.03 1.355-.103 2.004-.22.73-.118 1.406-.34 2.02-.664.62-.32 1.16-.688 1.63-1.1.5-.443.918-.917 1.256-1.433.34-.51.58-1.034.725-1.56.207-.734.313-1.41.313-2.028 0-.616-.096-1.168-.285-1.652-.194-.486-.467-.918-.816-1.296-.355-.385-.75-.692-1.19-.928-.795-.38-1.595-.704-2.402-.97-.805-.262-1.618-.498-2.442-.704-.853-.206-1.693-.388-2.533-.55-.836-.163-1.665-.345-2.49-.55-.88-.206-1.754-.472-2.62-.794-.86-.32-1.666-.676-2.398-1.058-.734-.408-1.387-.85-1.96-1.32-.574-.47-.993-.953-1.254-1.454-.353-.616-.597-1.262-.73-1.94-.13-.673-.198-1.332-.198-1.977.027-.883.188-1.72.484-2.512.295-.79.692-1.496 1.19-2.112.587-.707 1.248-1.284 1.982-1.74.736-.456 1.512-.802 2.334-1.036.938-.292 1.91-.463 2.907-.507.998-.045 1.993-.036 2.993.02.645.06 1.262.157 1.854.287.583.133 1.152.294 1.692.485.544.192 1.085.405 1.63.64.543.233 1.11.483 1.696.748l.485-1.496h1.63l2.728 8.014M160.82 28.122l2.097 6.75-1.35.415c-.272-.476-.58-.957-.915-1.445-.34-.49-.71-.945-1.11-1.368-.397-.427-.834-.814-1.313-1.166-.472-.347-.978-.648-1.498-.9-.504-.222-1.028-.404-1.578-.544-.55-.136-1.134-.217-1.76-.242-.302 0-.565.018-.79.056-.224.038-.41.112-.562.225-.15.113-.264.263-.335.452-.077.186-.113.43-.113.73V52.05l4.162 1.087v1.2h-11.85v-1.16l3.862-1.05V31.16c0-.275-.04-.513-.116-.713-.072-.198-.175-.356-.297-.468-.124-.116-.267-.2-.43-.264-.163-.063-.334-.094-.51-.094-.548 0-1.086.044-1.61.132-.53.086-1.04.22-1.542.393-.694.275-1.36.624-1.984 1.05-.628.425-1.188.9-1.69 1.424-.376.427-.71.87-1.014 1.334-.3.46-.537.943-.712 1.443l-1.423-.45 2.213-6.825h22.166M186.84 28.16l2.508 6.974-1.16.34c-.376-.5-.784-.976-1.235-1.425-.45-.45-.925-.876-1.428-1.276-.5-.377-1.025-.727-1.577-1.05-.545-.326-1.11-.613-1.685-.864-.675-.3-1.383-.544-2.12-.732-.737-.188-1.48-.306-2.232-.356-.598-.048-1.19-.062-1.78-.038-.586.026-1.17.088-1.744.19-.326.072-.623.198-.898.372-.276.177-.5.388-.678.64-.174.225-.312.48-.41.765-.1.29-.15.585-.15.884v6.864h6.302l1.163-4.838h1.422v11.477h-1.313l-1.31-4.838h-6.264v8.326c0 .298.06.605.187.92.124.31.277.59.45.84.2.276.438.51.713.694.276.19.564.308.863.36.597.096 1.19.172 1.78.222.59.048 1.182.064 1.782.038.752-.052 1.5-.164 2.25-.337.753-.175 1.487-.425 2.215-.75.67-.3 1.354-.687 2.043-1.163.688-.476 1.37-1.024 2.043-1.652.474-.45.94-.94 1.405-1.46.466-.526.923-1.09 1.368-1.688l1.277.487-3.452 8.25H165.05v-1.162l3.262-.862V30.258l-3.416-.937v-1.16h21.944M201.796 28.01v1.31l-3.712 1.014 7.5 19.765 7.726-19.803-4.125-1.088V28.12h10.123v1.013l-3.45.9-9.94 24.303h-2.433l-9.83-24.304-3.113-.825v-1.2h11.254M243.378 28.16l2.515 6.974-1.163.34c-.374-.5-.787-.976-1.238-1.425-.45-.45-.922-.876-1.424-1.276-.5-.377-1.024-.727-1.576-1.05-.55-.326-1.113-.613-1.69-.864-.674-.3-1.38-.544-2.117-.732-.74-.188-1.48-.306-2.233-.356-.6-.048-1.194-.062-1.78-.038-.588.026-1.17.088-1.745.19-.325.072-.62.198-.898.372-.276.177-.5.388-.677.64-.176.225-.312.48-.413.765-.1.29-.152.585-.152.884v6.864h6.304l1.16-4.838h1.424v11.477h-1.307l-1.315-4.838h-6.267v8.326c0 .298.064.605.194.92.118.31.27.59.447.84.2.276.44.51.71.694.278.19.565.308.862.36.6.096 1.195.172 1.783.222.588.048 1.18.064 1.783.038.748-.052 1.5-.164 2.25-.337.746-.175 1.49-.425 2.21-.75.674-.3 1.36-.687 2.044-1.163.688-.476 1.373-1.024 2.044-1.652.472-.45.946-.94 1.41-1.46.46-.526.918-1.09 1.367-1.688l1.274.487-3.45 8.25h-22.13v-1.162l3.268-.862V30.258l-3.418-.937v-1.16h21.94M257.362 28.16l12.752 20.777V30.334l-3.79-1.013v-1.086h9.34v1.164l-3.376.936V54.45h-3.45l-14.29-23.252v21l3.827 1.053v1.124H249V53.25l3.412-.9V30.335L249 29.398v-1.24h8.362M296.797 35.368l-.997.5-2.815-3.138c-.477-.357-.927-.69-1.36-1-.42-.31-.852-.58-1.28-.82-.5-.26-1.018-.473-1.55-.64-.536-.167-1.125-.262-1.763-.284-.55-.026-1.092.01-1.644.106-.547.095-1.056.237-1.535.425-.5.215-.937.477-1.317.786-.38.31-.675.677-.89 1.107-.238.547-.36 1.034-.36 1.463 0 .425.074.81.214 1.156.145.345.342.642.59.893.253.248.506.467.765.66.572.403 1.178.728 1.823.98.64.247 1.294.456 1.958.622.764.192 1.535.364 2.32.516.78.158 1.553.328 2.317.52.69.19 1.355.386 1.997.588.643.204 1.233.446 1.782.73.547.286 1.043.62 1.497 1 .452.382.845.834 1.175 1.353.31.477.53 1.01.663 1.59.128.582.194 1.16.194 1.727 0 .573-.066 1.125-.194 1.66-.132.535-.28 1.006-.446 1.41-.308.616-.673 1.176-1.09 1.674-.418.5-.872.942-1.373 1.32-.57.43-1.163.787-1.783 1.07-.617.287-1.226.512-1.82.677-.545.167-1.08.28-1.604.338-.525.06-1.03.09-1.532.09-.5-.025-1.01-.065-1.533-.125-.522-.058-1.056-.125-1.603-.196-.427-.07-.868-.19-1.323-.354-.448-.168-.9-.357-1.354-.574-.33-.166-.664-.342-.996-.536-.336-.186-.653-.367-.962-.53l-.5 1.71h-1.534l-2.316-8.416 1.32-.213c.33.595.687 1.172 1.065 1.73.383.56.777 1.097 1.18 1.62.43.524.886 1.02 1.374 1.48.488.466 1.024.89 1.623 1.268.592.38 1.193.678 1.8.89.606.216 1.208.358 1.797.428.595.073 1.17.097 1.73.073.56-.024 1.102-.086 1.625-.18.593-.093 1.14-.274 1.643-.534.496-.262.934-.558 1.317-.892.404-.357.742-.74 1.017-1.16.268-.415.467-.838.59-1.266.162-.594.244-1.14.244-1.64s-.08-.943-.232-1.336c-.155-.393-.37-.742-.66-1.05-.282-.31-.603-.56-.96-.75-.644-.307-1.293-.57-1.942-.787-.658-.214-1.315-.402-1.982-.568-.69-.165-1.373-.317-2.052-.445-.672-.132-1.346-.28-2.01-.447-.715-.166-1.422-.38-2.12-.642-.708-.26-1.356-.545-1.95-.857-.595-.332-1.118-.69-1.585-1.07-.46-.38-.8-.77-1.017-1.175-.284-.498-.482-1.02-.588-1.57-.105-.546-.158-1.08-.158-1.604.02-.71.152-1.39.393-2.03.236-.644.556-1.216.963-1.713.475-.57 1.01-1.04 1.6-1.41.598-.367 1.227-.647 1.893-.838.758-.235 1.544-.373 2.35-.41.812-.033 1.622-.03 2.427.02.523.05 1.025.123 1.498.232.474.106.935.237 1.374.39.437.156.882.328 1.322.517.437.192.897.394 1.37.608l.394-1.213h1.32l2.207 6.488" fill="#9D1535"/><path d="M113.792 81.28v.882h-2.644v7.106h-.892v-7.106h-2.632v-.882h6.168M116.927 81.28v3.392h4.418V81.28h.892v7.988h-.892v-3.693h-4.418v3.693h-.915V81.28h.915M130.916 81.28v.882h-4.964v2.41h4.684v.903h-4.684v2.912h4.975v.88h-5.867V81.28h5.856M137.788 81.28h.915v7.988h-.915V81.28zM141.648 81.28h.86l4.573 6.448V81.28h.815v7.988h-.86l-4.573-6.382v6.382h-.814V81.28M150.695 81.28h.86l4.573 6.448V81.28h.814v7.988h-.86l-4.573-6.382v6.382h-.815V81.28M163.244 82.005c-.343 0-.685.058-1.026.173-.342.115-.65.3-.92.558-.272.256-.494.59-.665 1.004-.17.413-.256.92-.256 1.523 0 .602.085 1.112.256 1.528.17.418.393.754.664 1.01.272.257.58.444.92.558.342.116.684.174 1.027.174.35 0 .692-.058 1.027-.174.334-.114.633-.303.894-.563.26-.26.47-.6.63-1.015.16-.416.24-.922.24-1.517 0-.603-.083-1.11-.246-1.523-.165-.413-.376-.748-.637-1.004-.26-.257-.556-.443-.89-.558-.336-.115-.675-.173-1.016-.173zm0-.88c.558 0 1.065.083 1.523.25.457.167.847.422 1.17.765.325.342.575.773.754 1.294.18.52.268 1.13.268 1.83 0 .698-.087 1.306-.262 1.822-.173.518-.42.95-.74 1.294-.32.346-.712.605-1.173.776-.46.17-.974.256-1.54.256-.58 0-1.103-.087-1.572-.262-.467-.174-.867-.434-1.198-.78-.33-.346-.586-.777-.764-1.294-.18-.517-.268-1.122-.268-1.813 0-.692.09-1.296.273-1.813.182-.517.44-.95.775-1.294.335-.346.734-.604 1.2-.776.464-.17.984-.256 1.556-.256zM172.045 88.387h.39l2.288-7.107h1.004l-2.734 7.988h-1.583l-2.69-7.988h1.06l2.265 7.107M178.127 86.39h3.312l-1.518-4.228h-.39l-1.405 4.227zm3.613.926h-3.915l-.625 1.952h-1.004l2.778-7.988h1.583l2.856 7.988h-1.05l-.623-1.952zM190.252 81.28v.882h-2.642v7.106h-.894v-7.106h-2.632v-.882h6.168M192.672 81.28h.915v7.988h-.915V81.28zM200.036 82.005c-.344 0-.685.058-1.027.173-.343.115-.65.3-.92.558-.272.256-.494.59-.664 1.004-.173.413-.258.92-.258 1.523 0 .602.085 1.112.258 1.528.17.418.392.754.663 1.01.27.257.577.444.92.558.34.116.682.174 1.026.174.35 0 .69-.058 1.026-.174.334-.114.632-.303.893-.563.26-.26.47-.6.63-1.015.16-.416.24-.922.24-1.517 0-.603-.082-1.11-.245-1.523-.165-.413-.376-.748-.637-1.004-.26-.257-.557-.443-.892-.558-.334-.115-.673-.173-1.014-.173zm0-.88c.558 0 1.064.083 1.523.25.456.167.846.422 1.17.765.324.342.574.773.753 1.294.178.52.267 1.13.267 1.83 0 .698-.087 1.306-.262 1.822-.173.518-.422.95-.74 1.294-.32.346-.712.605-1.174.776-.46.17-.973.256-1.538.256-.58 0-1.105-.087-1.573-.262-.468-.174-.87-.434-1.2-.78-.33-.346-.586-.777-.763-1.294-.18-.517-.27-1.122-.27-1.813 0-.692.093-1.296.275-1.813.182-.517.44-.95.774-1.294.334-.346.734-.604 1.2-.776.465-.17.983-.256 1.556-.256zM206.204 81.28h.86l4.573 6.448V81.28h.815v7.988h-.86l-4.573-6.382v6.382h-.816V81.28M220.226 81.28v5.545c0 .283.062.53.186.74.123.214.288.39.493.537.206.145.443.253.71.323.27.07.555.107.853.107.3 0 .586-.04.858-.118.273-.078.512-.19.718-.334.206-.145.37-.324.493-.536.123-.212.186-.452.186-.72V81.28h.89v5.734c0 .402-.094.753-.283 1.054-.19.302-.434.55-.736.748-.3.196-.64.346-1.016.446-.374.1-.744.15-1.11.15-.364 0-.732-.05-1.104-.15-.37-.1-.708-.25-1.01-.446-.3-.197-.545-.446-.736-.748-.19-.3-.285-.652-.285-1.054V81.28h.893M228.392 81.28h.86l4.573 6.448V81.28h.814v7.988h-.86l-4.574-6.382v6.382h-.814V81.28M237.674 81.28h.914v7.988h-.914V81.28zM244.167 88.387h.39l2.287-7.107h1.003l-2.732 7.988h-1.583l-2.69-7.988h1.06l2.265 7.107M255.858 81.28v.882h-4.966v2.41h4.686v.903h-4.686v2.912h4.976v.88H250V81.28h5.858M262.28 84.783c.208 0 .412-.033.614-.1.2-.067.377-.162.526-.285.15-.122.27-.274.363-.45.093-.18.14-.384.14-.616 0-.423-.15-.724-.453-.903-.302-.18-.713-.268-1.235-.268h-.884c-.194 0-.397.002-.61.005-.21.004-.414.008-.608.01-.194.005-.37.01-.526.012-.156.004-.276.01-.358.016v2.577h3.03zm-.726.758h-2.306v3.728h-.892v-7.954c.18-.008.44-.014.786-.017l1.094-.01c.382-.004.753-.007 1.11-.007h.836c.827 0 1.476.155 1.953.463.477.31.714.81.714 1.5 0 .328-.06.627-.18.898-.12.273-.282.51-.49.71-.21.2-.453.36-.732.48-.278.12-.578.186-.898.2l2.81 3.738h-1.147l-2.66-3.727zM270.266 81.124c.253 0 .54.032.866.095.325.063.633.194.927.395.294.2.552.487.775.86.224.37.365.862.425 1.472h-.927c-.08-.447-.198-.8-.347-1.055-.148-.256-.318-.45-.51-.58-.188-.13-.39-.213-.608-.25-.217-.038-.43-.057-.637-.057-.246 0-.474.034-.69.1-.21.067-.396.16-.558.275-.16.114-.286.25-.38.407-.094.155-.14.322-.14.5 0 .246.07.444.214.593.142.148.328.275.56.38.23.103.49.19.786.256.295.066.594.14.9.216.306.08.606.172.9.28.294.108.558.247.79.418.23.172.416.39.558.653.14.264.212.59.212.976 0 .356-.076.68-.227.97-.153.29-.372.536-.654.74-.28.206-.622.364-1.02.475-.396.112-.846.167-1.345.167-.52 0-.965-.08-1.34-.245-.37-.163-.677-.383-.92-.658-.24-.276-.416-.598-.527-.966-.112-.368-.168-.756-.168-1.165h.893c0 .37.052.69.156.958.103.267.247.49.43.67.182.178.4.31.65.395.247.086.522.13.82.13.335 0 .644-.027.924-.08.28-.052.52-.136.72-.25.202-.116.358-.265.47-.447.112-.182.168-.403.168-.664 0-.38-.12-.67-.358-.876-.238-.204-.538-.365-.9-.484-.362-.12-.753-.224-1.174-.313-.42-.09-.813-.21-1.175-.364-.36-.152-.66-.364-.898-.636-.24-.27-.36-.648-.36-1.132 0-.372.08-.693.24-.964.16-.272.37-.497.628-.676.257-.178.547-.31.87-.396.327-.085.653-.128.98-.128M276.116 81.28h.915v7.988h-.914V81.28zM285.597 81.28v.882h-2.642v7.106h-.895v-7.106h-2.632v-.882h6.17M290.557 85.207l2.37-3.927h1.093l-3.01 4.786v3.202h-.894v-3.202l-3.034-4.786h1.116l2.36 3.927M297.652 82.984c.29 0 .437-.163.437-.488 0-.14-.033-.238-.094-.3-.06-.06-.18-.09-.357-.09-.157 0-.303.006-.436.02v.858h.448zm-.266.318h-.182v1.327h-.377v-2.836c.124-.018.255-.03.386-.043.133-.01.27-.015.414-.015.302 0 .52.058.652.173.132.114.197.29.197.53 0 .246-.064.447-.19.6-.13.155-.29.24-.485.258l.85 1.333h-.454l-.812-1.328zm.26-2.094c-.21 0-.415.034-.622.1-.206.07-.392.18-.56.34-.165.158-.3.364-.405.62-.105.256-.157.573-.157.95 0 .364.05.673.15.927.098.253.23.46.393.62.162.16.348.28.556.352.208.074.422.11.644.11.217 0 .427-.036.63-.11.205-.073.384-.19.54-.35.156-.162.28-.37.375-.626.093-.255.14-.562.14-.922 0-.373-.047-.687-.142-.943-.096-.256-.223-.463-.38-.62-.156-.16-.334-.274-.54-.343-.202-.07-.41-.104-.622-.104zm0-.403c.658 0 1.174.2 1.545.6.37.398.557 1.002.557 1.813 0 .807-.183 1.41-.547 1.814-.365.404-.883.605-1.554.605-.325 0-.62-.05-.886-.145-.263-.098-.49-.247-.678-.447-.19-.2-.334-.45-.436-.754-.103-.302-.153-.66-.153-1.072 0-.398.048-.75.146-1.05.096-.302.238-.553.426-.755.186-.2.41-.353.68-.456.266-.1.567-.152.9-.152z" fill="#B2B3B2"/><g><path d="M0 0v110.737l43.397 28.608 43.998-28.608V.05L0 0z" fill="#9D1535"/><g fill="#FFF"><path d="M55.66 98.504c-5.792 4.204-11.554 8.388-11.572 8.403l-.272.19.01 8.18c1.116-.814 4.2-3.068 7.83-5.723 4.755-3.474 10.945-8.006 16.758-12.28l.06-.042c.05-.038.13-.094.227-.168.2-.147.482-.367.822-.644.68-.555 1.59-1.353 2.488-2.315 1.812-1.924 3.574-4.51 3.564-7.056.004-3.01-2.388-6.29-10.724-8.805l-.048.75c4.117 2.166 5.523 4.35 5.53 6.3-.026 2.187-1.718 3.765-2.68 4.504l.005.01-.33.23c-.107.073-5.903 4.28-11.668 8.464zm-11.822 7.868l-.078-.23c.006-.002 19.96-14.484 22.782-16.525l-.007-.008.302-.207c.014-.014.028-.02.028-.024h.004c.775-.526 2.678-2.145 2.656-4.086.002-1.54-1.127-3.54-5.326-5.71l-.232-.117.14-2.274.48.14c8.82 2.53 11.787 6.118 11.788 9.716-.07 5.817-7.464 10.824-7.514 10.89-11.557 8.5-24.788 18.145-24.788 18.145l-.24.175-.008-.338-.095-8.65.108-.9z"/><path d="M18.242 88.67V71.913c0-1.344.066-3.81.066-5.09-2.046-.748-5.778-3.156-7.31-5.612v31.697l32.84 23.34V106.09L18.242 88.67"/><path d="M52.226 78.843c-.416 0-.835.372-.835.842v3.518c0 .457.42.85.836.85.447 0 .855-.393.855-.85v-3.518c0-.455-.4-.842-.854-.842zm2.28 3.677c0 1.086-1.036 1.97-2.28 1.97-1.224 0-2.257-.884-2.257-1.97v-2.142c0-1.087 1.05-1.972 2.256-1.972 1.234 0 2.28.885 2.28 1.972v2.142zm-8.313 1.9h-1.505l2.215-5.506H45.12c-.24 0-.443.177-.443.396h-.275v-.79h4.183l-2.392 5.9zm.332 8.035c-.826.027-1.653.383-2.284 1.08-.63.695-.964 1.6-.986 2.51h-.088c-.022-.91-.354-1.815-.983-2.51-.632-.697-1.458-1.053-2.29-1.08v-.094c.832-.023 1.658-.384 2.29-1.078.63-.696.96-1.598.983-2.507h.088c.022.91.357 1.81.987 2.507.632.694 1.46 1.055 2.285 1.08v.093zm-8.146-9.758c0-.727.51-1.33 1.22-1.663-.474-.254-.784-.683-.784-1.185 0-.778.804-1.414 1.79-1.414.99 0 1.795.636 1.795 1.413 0 .5-.333.954-.796 1.193.71.332 1.232.927 1.232 1.654 0 .902-.997 1.814-2.23 1.814-1.232 0-2.227-.91-2.227-1.813zm-1.517 1.723H32.77v-.382h.903c.236 0 .437-.178.437-.396v-4.45c0-.223-.233-.397-.562-.397v-.274h1.986v5.122c0 .218.197.396.434.396h.895v.382zm7.013-10.71h.1c-6.662-.99-16.76-3.788-23.507-6.27V88.08l23.31 15.432 23.426-16.368v-8.95c-5-2-14.678-3.206-23.33-4.487zm-3.27 7.164c.314 0 .573-.234.573-.523v-.996c0-.288-.26-.527-.574-.527-.312 0-.565.24-.565.527v.997c0 .29.254.524.566.524zm.75 2.55v-1.46c0-.378-.34-.692-.75-.692-.408 0-.75.314-.75.69v1.462c0 .376.342.69.75.69.41 0 .75-.314.75-.69zM20.578 42.33l-.197.09M54.96 37.557l.16-.368-.16.367zm21.313 35.297V46.71l-20.724-8.9.267 6.606 14.02 5.614v19.507c0 .047.003.1.006.15 2.198.792 4.474 1.82 6.43 3.167zm.16 1.105c-2.06-1.558-4.626-2.73-7.098-3.603l-.232-.083-.032-.24c-.02-.16-.035-.325-.04-.497V50.573l-13.997-5.607-.314-7.763-.026-.633 22.383 9.61v28.27l-.643-.49zM43.75 13.64c-.32 0-.584.102-.693.244-.014-.02-.025-.037-.032-.056.04.105.17.194.34.25.093-.085.234-.14.384-.14.155 0 .29.055.383.14.144-.046.25-.112.31-.194-.112-.142-.377-.243-.694-.243M43.222 13.48c.134-.07.323-.115.527-.115.182 0 .348.038.48.095.066-.062.116-.133.14-.213-.07-.226-.34-.395-.655-.395-.322 0-.586.17-.658.396-.014-.04-.023-.08-.023-.122 0 .136.073.26.188.354M43.512 12.634c.065-.016.13-.026.203-.026.057 0 .11.007.168.02.046-.053.077-.122.077-.2 0-.156-.122-.28-.267-.28-.148 0-.27.124-.27.28 0 .084.035.154.09.206"/><path d="M36.595 44.694l.907 5.22.11.256.098-.21.097-5.164 2.716.806.156-.13-2.96-1.02-1.125.242zm20.182 6.374l1.35 4.805-.072-4.442 1.94.473.115-.09-2.12-.745h-1.213zm-11.968 2.45l-11.673-3.296-.008.005v.37l11.677 3.214.002-.29zm21.77 2.74l-1.62-.5h-1.27l1.1.308.17 3.647.206.207-.04-3.788 1.375.297.08-.173zm-.944 9.197c.07-.318.227-1.286.988-1.6 0 0 .754.904.856 1.944l-1.844-.345zm-2.63-7.854l-7.04-1.723-.58-9.58 3.812 1.387-.35.586 4.157 9.33zm-2.38 5.258s.066-.91.686-1.462c0 0 .584.505.738 1.595 0 .032.013.064.013.098l-1.436-.23zm1.42 5.09c-.445-.107-.912-.195-1.395-.304v-4.337l1.396.213v4.427zm-2.263-.48c-.473-.1-.965-.182-1.47-.284V62.85l1.47.225v4.394zm-.767-6.55s.598.505.754 1.594c.005.032.013.06.013.095l-1.47-.228s.063-.91.703-1.463zm-6.86 5.24c-.426-.06-.966-.133-1.533-.21V60.91s-.02-.705.813-1.362c0 0 .573.78.718 1.737.006.03 0 .068 0 .104v4.767zm-2.366-7.43c0-.39.275-.708.61-.708.337 0 .612.318.612.71 0 .39-.275.71-.61.71-.337 0-.612-.32-.612-.71zm-9.914-.46s-.008-1.15.965-1.88c0 0 .652.695.844 2.046.006.04.015.077.015.12l-1.824-.286zm-3.213-.63s-.01-1.213 1.01-1.982c0 0 .692.73.893 2.156.004.04.017.082.017.125l-1.92-.3zM44.2 32.264l-.035-1.397.282-.586 10.938 4.957v.732l-.53.303.033.52-10.69-4.53zm9.036 12.137l-1.532-.542v-5.617s-.02-.705.814-1.36c0 0 .57.777.714 1.733.006.035.004.07.004.107v5.68zm-2.43-.86l-1.827-.627v-5.56s.167-.94.976-1.658c0 0 .85 1.16.85 2.135v5.71zm-2.72-.957l-1.995-.687v-5.465s.19-1.302 1.073-1.823c0 0 .923 1.307.923 2.283v5.692zM33.414 49.76l.77-9.73.424-.955L41.65 41.6l-.26.587 2.897 10.604-10.873-3.03zm-.08-11.162l.002-1.89-.487-.245v-.633l10.766-5.548.267.692.314 20.515-2.54-9.344.09-.21.114-.266-.112.266.185-.056-.206-5.417c-.02-.337-.507-1.617-.843-1.755-.327.31-.703 1.477-.667 2.128l.16 3.838-1.214-.437-.095-2.51c-.022-.316-.49-1.61-.843-1.755-.33.313-.705 1.475-.667 2.13l.066 1.582-1-.36-.01-.358c-.02-.34-.49-1.61-.844-1.757-.33.312-.58 1.377-.625 1.582l-1.076-.388h-.31l-.426.194zm4.523-8.822v1.314l-.233.305.6-.26v-3.33l.79-1.008.9.096v3.503l.39-.17.024-3.622 1.607.874.09-.458-1.636-.836 1.916-.806 1.177 4.256-9.38 4.89 3.754-4.748zm7.05-4.54l-1.038 4.046-1.043-4.046h2.08zm.502 0l1.787.944-1.49.647.377.416 1.598-.53v3.264l.476.24.042-3.232.59-.188.664.807v3.268l.66.332-.24-.308v-1.9l3.934 4.894-9.518-4.278 1.12-4.376zM22.242 58.014l3.4.59v3.778c-1.146-.24-2.723-.564-3.4-.727v-3.64zm1.794-3.037s1.77 1.03 1.664 2.836l-3.377-.61s-.097-1.454 1.714-2.226zm36.026-4.703l-.85-1.913.557-.902-4.29-1.62-.38-9.402.61-.355-.062-1.06-.71-.294-5.092-6.317.007-.687.76-.077-1.554-2.036-1.4.37v-.604l-.746-.426v.286l-1.613-.29-2.79-.085-1.7.376.008-.173-.513.313v.75l-.022-.015-1.647-.307-1.564 2.034.764.076v1.53l-5.266 6.433.017.69.518.356-.028 1.79-3.4 1.55-2.375-.8-.67.287 3.037 1.05-.003-.002 3.277-1.536.46.763-.768 9.732-3.824 1.557 1.013-9.77-.152-.723-.164.756-.962 9.693-8.1-2.054v-6.813l-.036.014v18.786c1.374.39 4.085 1.012 8.21 1.735V52.602l-8.153-2.107v-.228l8.143 2.106.01-.005v-.305l-.04-.01-8.114-2.083v-.305l8.143 2.09 4.508-1.845.05.014 11.645 3.29v-.046l1.46.357-.01-5.346s.258-1.105 1.07-1.823c0 0 .924 1.306.924 2.284 0 .553.01 4.314.013 5.373l1.112.273v-5.35s.166-.94.978-1.658c0 0 .852 1.16.852 2.136v5.318l1.01.245v-5.25s-.02-.706.814-1.363c0 0 .57.78.715 1.736.004.034.003.07.003.106v5.147l2.276.557.003.16 8.212 2.027-.41.197-7.796-1.918.002.166 7.675 1.91-.283.164-7.552-1.888.002-.015-11.082-2.67v-.004L33.13 50.826v12.846c-.537-.085-1.1-.167-1.664-.258v-5.602l-1.578.408.048 4.945c1.96.33 4.2.676 6.727 1.03v-5.942l1.92.295-.02 5.904-1.308-.177c.844.117 1.718.234 2.625.35V58.85l1.82.282v5.72l-1.462-.18c1.585.202 3.265.404 5.04.607.97.11 1.9.22 2.798.334-.02-.002-.042-.008-.056-.01V60.12c0-1.972 2.226-3.272 2.25-3.287l.044-.025.04.033c.1.086 2.414 2.11 2.414 4.145v5.267l-.15-.02v-5.247c0-1.826-2.01-3.717-2.32-3.997-.314.196-2.132 1.397-2.132 3.13v5.506l1.01.132-.528-.076v-5.082s-.02-.706.813-1.364c0 0 .573.78.716 1.738.005.033.003.07.003.105v4.813c6.518.89 11 1.824 13.78 2.51l-.115-9.52h.018l-.018-.315.52-.3.01-.362-.808-.182-3.367-7.094 7.405 2.51v7.793l-3.625-.91.004.27 3.62.854v.286l-3.618-.85.003.125 3.615.832v.226l-3.613-.83.088 7.497c.603.15 1.125.288 1.563.41l-.028-2.807 1.877.336c0 .656.024 1.925.034 3.03l-.31-.095.36.122.153.048V52.9l-7.667-2.626zM28.796 62.97l1.092.188-1.092-.188zm0 0l-.173-.032c.056.01.117.02.173.032zm16.68-39.404l1.396.975.038-1.378v-.088l-1.906-1.085h-2.462l-1.658 1.085v1.567l1.414-1.076h3.178zm15.858 38.228c-.205 0-.37.224-.37.5s.165.5.37.5c.204 0 .366-.224.366-.5s-.162-.5-.366-.5zm-23.71-5.546c-.3 0-.54.29-.54.65 0 .362.24.653.54.653.3 0 .542-.29.542-.65 0-.362-.242-.652-.542-.652zm3.166.702c-.285 0-.515.276-.515.617 0 .344.23.62.515.62.284 0 .513-.276.513-.62 0-.34-.23-.617-.513-.617zm-9.785-.084c-.008.362-.154.655-.32.65-.168-.003-.3-.3-.288-.662.004-.363.15-.654.316-.65.172.002.3.3.292.662zm-1.078 1.1l1.484-.406c0-1.25-.706-2.143-.706-2.143s-.777 1.118-.777 2.55zm29.11 3.35c-.21 0-.38.223-.38.5 0 .276.17.498.38.498s.376-.222.376-.498c0-.277-.165-.5-.377-.5zm-17.52-39.912l1.957-7.208.088-.044-1 6.788h-.358l-.688.464zm3.072-.47h-1.547l.738-6.782.81 6.782zm-.496-6.738l1.997 7.15-.723-.406h-.363l-1-6.788.09.044zm1.218 7.16l1.29.704-2.52-8.167-.666-.008-2.342 8.233 1.292-.76h2.946zM22.432 49.12l.28-.157.302-5.422 2.85.91.27-.228-3.237-1.115-1.19.434.613 5.327.112.252z"/><path d="M27.293 39.458l.074.024 2.302.776 3.394-1.55.03-1.75-5.8 2.5zm-1.437 4.987l-2.852-.91-.3 5.422-.278.154.006.01.28-.157.302-5.422 2.85.91.27-.228-.01-.004-.268.227zm-12.404.946l-2.455 1.055v6.553c0 3.72 2.616 6.137 6.398 7.343.71.285 1.82.565 2.986.834v-.836c-4.663-2.842-6.172-8.3-.747-10.78l.77-.302v-.054l.045.01V42.4l6.177-2.65 3.042 1.05-3.055-1.057-13.16 5.65z"/></g></g><g fill="#FFF"><path d="M433 61h13v2h-13zM433 66h9v2h-9zM433 71h13v2h-13z"/></g><path d="M408.752 40c-2.9 0-5.25 2.352-5.25 5.25 0 1.04.294 1.996.813 2.803l-3.97 3.95c-.46.46-.46 1.204 0 1.655.224.226.518.342.826.342.288 0 .595-.116.828-.342l3.95-3.97c.808.518 1.765.812 2.804.812 2.898 0 5.25-2.352 5.25-5.25S411.65 40 408.752 40zm0 8.75c-1.928 0-3.5-1.572-3.5-3.5s1.572-3.5 3.5-3.5c1.927 0 3.5 1.572 3.5 3.5s-1.573 3.5-3.5 3.5zM412.06 88.31c2.32-2.316 2.462-4.716.986-6.192-1.49-1.49-3.89-1.49-5.36 0-.28.28-.506.588-.683.91-.178-.322-.404-.63-.684-.91-1.47-1.47-3.87-1.47-5.347 0-1.49 1.476-1.346 3.876.97 6.193l4.848 4.86c.05.05.13.083.213.083.082 0 .143-.034.212-.082l4.846-4.86zM398 89.625c0-2.044-2.92-1.456-2.92-3.274 0 0 1.17-1.312 1.17-3.725 0-1.442-1.183-2.625-2.625-2.625-1.456 0-2.625 1.183-2.625 2.625 0 .294.014.554.048.813v.014s1.12.985 1.12 2.673c0 2.317-1.038 3.89-1.038 3.89s.273.26.97.485h5.606c.164 0 .294-.13.294-.294v-.58zm-5.25 3.5c0-2.044-2.92-1.456-2.92-3.274 0 0 1.17-1.312 1.17-3.725 0-1.442-1.183-2.625-2.625-2.625-1.456 0-2.625 1.183-2.625 2.625 0 2.413 1.17 3.726 1.17 3.726 0 1.82-2.92 1.252-2.92 3.275v.58c0 .165.13.295.294.295h8.162c.164 0 .294-.13.294-.294v-.58zM424.75 86.25H424V84c0-1.652-1.348-3-3-3s-3 1.348-3 3v2.25h-.75c-.416 0-.75.334-.75.75v5.25c0 .416.334.75.75.75h7.5c.416 0 .75-.334.75-.75V87c0-.416-.334-.75-.75-.75zM419.5 84c0-.832.668-1.5 1.5-1.5s1.5.668 1.5 1.5v2.25h-3V84zM331.252 0c-3.726 0-6.75 3.023-6.75 6.75 0 1.336.378 2.566 1.046 3.604l-5.106 5.08c-.59.588-.59 1.546 0 2.127.29.29.668.44 1.063.44.37 0 .765-.15 1.064-.44l5.08-5.106c1.036.668 2.266 1.046 3.602 1.046 3.727 0 6.75-3.023 6.75-6.75S334.98 0 331.252 0zm0 11.25c-2.478 0-4.5-2.02-4.5-4.5s2.022-4.5 4.5-4.5c2.48 0 4.5 2.02 4.5 4.5s-2.02 4.5-4.5 4.5z" fill="#9D1535"/><path d="M369.664 20h-11.328c-1.29 0-2.336 1.047-2.336 2.336v11.328c0 1.29 1.047 2.336 2.336 2.336h11.328c1.29 0 2.336-1.047 2.336-2.336V22.336c0-1.29-1.047-2.336-2.336-2.336zM364 25c1.656 0 3 1.344 3 3s-1.344 3-3 3-3-1.344-3-3 1.344-3 3-3zm6.336 9c0 .188-.15.336-.336.336h-12c-.188 0-.336-.148-.336-.336v-7h1.774c-.07.32-.102.656-.102 1 0 2.578 2.086 4.664 4.664 4.664s4.664-2.086 4.664-4.664c0-.344-.03-.68-.1-1h1.772v7zm0-10c0 .188-.15.336-.336.336h-2c-.188 0-.336-.148-.336-.336v-2c0-.188.15-.336.336-.336h2c.188 0 .336.148.336.336v2zM354 22.53c-.594.267-1.22.447-1.89.525.687-.407 1.202-1.055 1.445-1.82-.625.374-1.336.648-2.07.796-.618-.624-1.47-1.03-2.415-1.03-1.812 0-3.273 1.46-3.273 3.273 0 .258.015.524.07.758-2.72-.147-5.125-1.382-6.758-3.366-.274.484-.446.984-.446 1.594 0 1.125.578 2.125 1.47 2.72-.54-.017-1.04-.166-1.486-.408v.04c0 1.593 1.133 2.92 2.633 3.218-.28.078-.577.117-.874.117-.203 0-.406-.023-.61-.062.407 1.297 1.634 2.265 3.056 2.28-1.11.892-2.54 1.556-4.07 1.556-.266 0-.524-.017-.782-.056 1.445.93 3.188 1.336 5.04 1.336 6.03 0 9.327-5 9.327-9.336v-.43c.633-.46 1.188-1.03 1.633-1.703z" fill="#FFF"/><path d="M359.875 80h-7c-.485 0-.875.39-.875.875v12.25c0 .485.39.875.875.875h7c.485 0 .875-.39.875-.875v-12.25c0-.485-.39-.875-.875-.875zm-3.5 13.125c-.485 0-.875-.39-.875-.875s.39-.875.875-.875.875.39.875.875-.39.875-.875.875zm2.92-2.625h-5.84v-8.17h5.84v8.17zM343 88.125l7-5.25c0-.485-.39-.875-.875-.875h-12.25c-.485 0-.875.39-.875.875l7 5.25zm0 1.572l-7-5.25v7.178c0 .485.39.875.875.875h12.25c.485 0 .875-.39.875-.875v-7.178l-7 5.25zM451 80c-3.876 0-7 3.145-7 7 0 3.876 3.124 7 7 7 3.855 0 7-3.124 7-7 0-3.855-3.145-7-7-7zm0 12.25c-.65 0-1.17-.52-1.17-1.17 0-.642.52-1.16 1.17-1.16.65 0 1.17.518 1.17 1.16 0 .65-.52 1.17-1.17 1.17zm.875-4.08v.286h-1.75v-.58c0-1.75 2.33-1.75 2.33-2.92 0-.58-.58-1.162-1.455-1.162-.875 0-1.75.875-1.75.875l-1.17-1.17s1.17-1.456 2.92-1.456c1.764 0 3.206 1.162 3.206 2.912 0 2.338-2.33 2.338-2.33 3.213zM331.374 85.247l-7.212 7.21c-.034.036-.06.05-.095.063l-3.665 1.463c-.047.014-.082.014-.11.014-.08 0-.15-.035-.21-.082-.083-.082-.097-.212-.07-.322l1.464-3.664c.013-.035.027-.062.06-.097l7.213-7.21 2.624 2.624zm2.365-3.617c.34.363.34.91 0 1.25l-1.49 1.492-2.626-2.625 1.49-1.49c.342-.342.89-.342 1.25 0l1.375 1.373zM334 40.875c0-.48-.396-.875-.875-.875h-12.25c-.48 0-.875.396-.875.875v12.25c0 .48.396.875.875.875h6.61v-5.44h-1.75V46.54h1.75V44.8c0-1.594.97-2.66 2.892-2.66.848 0 1.435.095 1.435.095v1.82H330.5c-.58 0-.875.327-.875.9v1.587h2.044l-.295 2.017h-1.75V54h3.5c.48 0 .875-.396.875-.875v-12.25zM350 42.34c-.52.232-1.066.39-1.654.458.6-.356 1.052-.923 1.264-1.593-.547.328-1.17.567-1.81.697-.54-.547-1.286-.902-2.113-.902-1.586 0-2.865 1.278-2.865 2.864 0 .226.014.458.062.663-2.38-.13-4.485-1.21-5.913-2.946-.24.425-.39.862-.39 1.396 0 .984.507 1.86 1.286 2.378-.47-.013-.91-.143-1.3-.355v.033c0 1.395.993 2.557 2.305 2.817-.245.068-.505.102-.765.102-.177 0-.355-.02-.533-.055.356 1.135 1.43 1.983 2.673 1.997-.97.78-2.222 1.36-3.56 1.36-.234 0-.46-.014-.685-.048 1.265.814 2.79 1.17 4.41 1.17 5.277 0 8.16-4.376 8.16-8.17v-.376c.555-.403 1.04-.902 1.43-1.49zM363.956 40h-9.912c-1.128 0-2.044.916-2.044 2.044v9.912c0 1.128.916 2.044 2.044 2.044h9.912c1.128 0 2.044-.916 2.044-2.044v-9.912c0-1.128-.916-2.044-2.044-2.044zM359 44.375c1.45 0 2.625 1.176 2.625 2.625 0 1.45-1.176 2.625-2.625 2.625-1.45 0-2.625-1.176-2.625-2.625 0-1.45 1.176-2.625 2.625-2.625zm5.544 7.875c0 .164-.13.294-.294.294h-10.5c-.164 0-.294-.13-.294-.294v-6.125h1.552c-.062.28-.09.574-.09.875 0 2.256 1.826 4.08 4.082 4.08s4.08-1.824 4.08-4.08c0-.3-.026-.595-.088-.875h1.552v6.125zm0-8.75c0 .164-.13.294-.294.294h-1.75c-.164 0-.294-.13-.294-.294v-1.75c0-.164.13-.294.294-.294h1.75c.164 0 .294.13.294.294v1.75zM391 42c-7 0-7 0-7 4.956s0 4.956 7 4.956 7 0 7-4.956S398 42 391 42zm-1.75 7.58v-5.25l4.375 2.626-4.375 2.625zM368.294 44.662v9.044h2.912v-9.044h-2.912zm7.58 3.794c0-1.17.746-1.75 1.62-1.75.876 0 1.587.58 1.587 2.044v4.956H382v-5.25c0-2.625-1.456-4.08-3.5-4.08-1.17 0-2.044.662-2.625 1.537l-.096-1.25h-2.872c0 .307.048 2.043.048 2.043v7h2.92v-5.25zm-6.138-5.25c1.08 0 1.764-.71 1.764-1.606-.014-.903-.684-1.6-1.736-1.6-1.067 0-1.764.697-1.764 1.6 0 .895.684 1.606 1.716 1.606h.02zM418.33 51.206c0-.157-.13-.287-.286-.287h-1.75c-.164 0-.294.13-.294.286v1.75c0 .164.13.294.294.294h1.75c.157 0 .287-.13.287-.294v-1.75zm0-4.956c0-.164-.13-.294-.286-.294h-1.75c-.164 0-.294.13-.294.294V48c0 .164.13.294.294.294h1.75c.157 0 .287-.13.287-.294v-1.75zm0-4.956c0-.164-.13-.294-.286-.294h-1.75c-.164 0-.294.13-.294.294v1.75c0 .157.13.287.294.287h1.75c.157 0 .287-.13.287-.286v-1.75zM430 51.206c0-.157-.13-.287-.294-.287h-9.912c-.164 0-.294.13-.294.286v1.75c0 .164.13.294.294.294h9.912c.164 0 .294-.13.294-.294v-1.75zm0-4.956c0-.164-.13-.294-.294-.294h-9.912c-.164 0-.294.13-.294.294V48c0 .164.13.294.294.294h9.912c.164 0 .294-.13.294-.294v-1.75zm0-4.956c0-.164-.13-.294-.294-.294h-9.912c-.164 0-.294.13-.294.294v1.75c0 .157.13.287.294.287h9.912c.164 0 .294-.13.294-.286v-1.75z" fill="#9D1535"/><path d="M349 0c-4.983 0-9 4.017-9 9s4.017 9 9 9 9-4.017 9-9-4.017-9-9-9zm1.125 14.625h-2.25V8.253h2.25v6.372zM349 6.372c-.835 0-1.503-.668-1.503-1.494 0-.835.668-1.503 1.503-1.503.835 0 1.503.668 1.503 1.503 0 .826-.668 1.494-1.503 1.494zM445.125 40h-1.17v1.75c0 .485-.39.875-.874.875s-.874-.39-.874-.875V40h-6.412v1.75c0 .485-.39.875-.875.875-.486 0-.876-.39-.876-.875V40h-1.17c-.484 0-.874.39-.874.875v12.25c0 .485.39.875.875.875h12.25c.485 0 .875-.39.875-.875v-12.25c0-.485-.39-.875-.875-.875zm-8.75 11.956h-2.33v-2.33h2.33v2.33zm0-4.08h-2.33v-2.332h2.33v2.33zm3.794 4.08h-2.34v-2.33h2.34v2.33zm0-4.08h-2.34v-2.332h2.34v2.33zm3.786 4.08h-2.33v-2.33h2.33v2.33zm0-4.08h-2.33v-2.332h2.33v2.33z" fill="#FFF"/><path d="M408.752 60c-2.9 0-5.25 2.352-5.25 5.25 0 1.04.294 1.996.813 2.803l-3.97 3.95c-.46.46-.46 1.204 0 1.655.224.226.518.342.826.342.288 0 .595-.116.828-.342l3.95-3.97c.808.518 1.765.812 2.804.812 2.898 0 5.25-2.352 5.25-5.25S411.65 60 408.752 60zm0 8.75c-1.928 0-3.5-1.572-3.5-3.5s1.572-3.5 3.5-3.5c1.927 0 3.5 1.572 3.5 3.5s-1.573 3.5-3.5 3.5z" fill="#111"/><path d="M418.33 71.206c0-.157-.13-.287-.286-.287h-1.75c-.164 0-.294.13-.294.286v1.75c0 .164.13.294.294.294h1.75c.157 0 .287-.13.287-.294v-1.75zm0-4.956c0-.164-.13-.294-.286-.294h-1.75c-.164 0-.294.13-.294.294V68c0 .164.13.294.294.294h1.75c.157 0 .287-.13.287-.294v-1.75zm0-4.956c0-.164-.13-.294-.286-.294h-1.75c-.164 0-.294.13-.294.294v1.75c0 .157.13.287.294.287h1.75c.157 0 .287-.13.287-.286v-1.75zM430 71.206c0-.157-.13-.287-.294-.287h-9.912c-.164 0-.294.13-.294.286v1.75c0 .164.13.294.294.294h9.912c.164 0 .294-.13.294-.294v-1.75zm0-4.956c0-.164-.13-.294-.294-.294h-9.912c-.164 0-.294.13-.294.294V68c0 .164.13.294.294.294h9.912c.164 0 .294-.13.294-.294v-1.75zm0-4.956c0-.164-.13-.294-.294-.294h-9.912c-.164 0-.294.13-.294.294v1.75c0 .157.13.287.294.287h9.912c.164 0 .294-.13.294-.286v-1.75z" fill="#FFF"/><path d="M438.668 0C436.644 0 435 1.644 435 3.668c0 .65.167 1.273.473 1.794l2.99 5.425c.04.065.114.113.205.113.076 0 .167-.048.205-.113l2.99-5.425c.29-.52.474-1.144.474-1.794 0-2.024-1.644-3.668-3.67-3.668zm0 5.043c-.762 0-1.375-.612-1.375-1.375 0-.768.613-1.375 1.375-1.375.763 0 1.375.607 1.375 1.375 0 .763-.612 1.375-1.375 1.375zM451.5 0c-3.045 0-5.5 2.455-5.5 5.5s2.455 5.5 5.5 5.5 5.5-2.455 5.5-5.5-2.455-5.5-5.5-5.5zm2.433 7.933l-2.927-1.654c-.054-.044-.102-.082-.156-.13-.177-.177-.268-.42-.268-.65V1.375h.918l.838 3.668 2.245 2.24-.65.65z" fill="#777"/><path d="M427.668 0C425.644 0 424 1.644 424 3.668c0 .65.167 1.273.473 1.794l2.99 5.425c.04.065.114.113.205.113.076 0 .167-.048.205-.113l2.99-5.425c.29-.52.474-1.144.474-1.794 0-2.024-1.644-3.668-3.67-3.668zm0 5.043c-.762 0-1.375-.612-1.375-1.375 0-.768.613-1.375 1.375-1.375.763 0 1.375.607 1.375 1.375 0 .763-.612 1.375-1.375 1.375zM406.864 6.735c.022-.092.01-.194-.053-.253L400.393.064c-.06-.065-.16-.075-.252-.054-.092.038-.14.13-.14.22v9.163c0 .092.048.183.14.22.027.01.064.01.09.01.065 0 .114-.026.162-.063l1.966-1.97 1.59 3.28c.048.12.188.167.306.102l1.03-.52c.114-.05.168-.19.103-.307l-1.606-3.27h2.864c.09 0 .183-.05.22-.14zM420.313 2.063h-2.75V.917c0-.343-.178-.585-.548-.725-.317-.13-.8-.193-1.515-.193-.714 0-1.198.064-1.515.193-.37.14-.548.382-.548.725v1.144h-2.75c-.38 0-.687.307-.687.688v6.188c0 .38.306.687.688.687h9.625c.38 0 .687-.306.687-.688V2.75c0-.38-.306-.688-.688-.688zm-5.73-.92h1.835v.92h-1.836v-.92z" fill="#9D1535"/><path d="M381.42 80.293c0-.116-.063-.232-.18-.28-.115-.028-.245-.014-.32.068l-2.174 2.19c-1.148-1.054-2.66-1.69-4.327-1.69-3.535 0-6.42 2.885-6.42 6.42 0 3.533 2.885 6.418 6.42 6.418 1.653 0 3.178-.636 4.312-1.668.014 0 .014-.02.014-.02.048-.048.082-.11.082-.192s-.02-.15-.082-.198v-.014l-1.25-1.25c-.097-.096-.274-.11-.39 0-.725.615-1.668 1.004-2.687 1.004-2.25 0-4.082-1.832-4.082-4.08 0-2.25 1.832-4.082 4.08-4.082 1.02 0 1.963.37 2.674 1.005l-1.716 1.702c-.082.075-.096.205-.068.32.047.118.164.18.28.18h5.537c.164 0 .294-.13.294-.295v-5.537z" fill="#A51A3E"/><path d="M368.294 64.662v9.044h2.912v-9.044h-2.912zm7.58 3.794c0-1.17.746-1.75 1.62-1.75.876 0 1.587.58 1.587 2.044v4.956H382v-5.25c0-2.625-1.456-4.08-3.5-4.08-1.17 0-2.044.662-2.625 1.537l-.096-1.25h-2.872c0 .307.048 2.043.048 2.043v7h2.92v-5.25zm-6.138-5.25c1.08 0 1.764-.71 1.764-1.606-.014-.903-.684-1.6-1.736-1.6-1.067 0-1.764.697-1.764 1.6 0 .895.684 1.606 1.716 1.606h.02z" fill="#007BB5"/><path d="M391 62c-7 0-7 0-7 4.956s0 4.956 7 4.956 7 0 7-4.956S398 62 391 62zm-1.75 7.58v-5.25l4.375 2.626-4.375 2.625z" fill="#B00"/><path d="M350 62.34c-.52.232-1.066.39-1.654.458.6-.356 1.052-.923 1.264-1.593-.547.328-1.17.567-1.81.697-.54-.547-1.286-.902-2.113-.902-1.586 0-2.865 1.278-2.865 2.864 0 .226.014.458.062.663-2.38-.13-4.485-1.21-5.913-2.946-.24.425-.39.862-.39 1.396 0 .984.507 1.86 1.286 2.378-.47-.013-.91-.143-1.3-.355v.033c0 1.395.993 2.557 2.305 2.817-.245.068-.505.102-.765.102-.177 0-.355-.02-.533-.055.356 1.135 1.43 1.983 2.673 1.997-.97.78-2.222 1.36-3.56 1.36-.234 0-.46-.014-.685-.048 1.265.814 2.79 1.17 4.41 1.17 5.277 0 8.16-4.376 8.16-8.17v-.376c.555-.403 1.04-.902 1.43-1.49z" fill="#55ACEE"/><path d="M334 60.875c0-.48-.396-.875-.875-.875h-12.25c-.48 0-.875.396-.875.875v12.25c0 .48.396.875.875.875h6.61v-5.44h-1.75V66.54h1.75V64.8c0-1.594.97-2.66 2.892-2.66.848 0 1.435.095 1.435.095v1.82H330.5c-.58 0-.875.327-.875.9v1.587h2.044l-.295 2.017h-1.75V74h3.5c.48 0 .875-.396.875-.875v-12.25z" fill="#334F94"/><path d="M428.554 91.476c1.052-1.312 3.527-1.9 6.446-1.9V92.2c0 .117.062.213.164.26.048.02.082.035.13.035.06 0 .13-.014.178-.062l6.412-4.963c.068-.048.116-.13.116-.225 0-.096-.048-.178-.116-.226l-6.412-4.964c-.082-.06-.212-.075-.308-.027-.102.047-.164.142-.164.26v2.624c-4.375 0-6.856 2.474-7 6.432 0 .13.096.24.226.274h.068c.096 0 .157-.048.26-.144z" fill="#9D1535"/><path d="M460.486 50.43c.095.088.152.133.24.133h.065c.12-.032.21-.134.21-.254-.133-3.677-2.438-5.975-6.5-5.975v-2.437c0-.108-.057-.197-.152-.24-.09-.046-.21-.033-.286.024l-5.954 4.61c-.064.043-.108.12-.108.208 0 .09.044.165.108.21l5.954 4.608c.044.044.108.057.165.057.044 0 .076-.013.12-.032.096-.044.153-.133.153-.24v-2.438c2.71 0 5.008.545 5.986 1.764zm15.437-5.092c.076-.07.09-.19.063-.298-.044-.108-.152-.165-.26-.165h-4.15l-1.823-4.697c-.044-.102-.146-.178-.254-.178-.11 0-.21.076-.255.178l-1.82 4.697h-4.153c-.108 0-.216.057-.26.165-.026.108-.013.23.063.298l3.16 3.15-.798 4.195c-.013.108.03.21.12.273.09.057.21.057.3 0l3.642-2.35 3.643 2.35c.044.03.1.044.146.044.043 0 .107-.013.15-.044.09-.064.134-.165.122-.273l-.8-4.196 3.16-3.15zm11.233 5.764c0-.076-.012-.133-.057-.178l-1.645-1.637c-.044-.05-.12-.077-.197-.077h-4.195c-.153 0-.273-.12-.273-.273V46.5h1.358c.102 0 .21-.057.254-.165.032-.108.013-.23-.064-.298L479.9 43.6c-.1-.11-.285-.11-.386 0l-2.438 2.437c-.076.07-.09.19-.063.298.044.108.152.165.26.165h1.352v2.438c0 1.352 1.085 2.437 2.438 2.437h5.82c.153 0 .273-.12.273-.273zm2.768-4.14c.076-.068.09-.19.063-.297-.044-.108-.152-.165-.26-.165h-1.352v-2.438c0-1.34-1.098-2.437-2.438-2.437h-5.82c-.153 0-.273.12-.273.273 0 .076.012.133.057.178l1.645 1.637c.044.05.12.077.197.077h4.195c.153 0 .273.12.273.273V46.5h-1.358c-.102 0-.21.057-.254.165-.032.108-.013.23.064.298L487.1 49.4c.056.052.113.077.19.077.076 0 .14-.025.196-.076l2.438-2.437z" fill="#FBE1B7"/><path d="M460.486 70.43c.095.088.152.132.24.132h.065c.12-.03.21-.133.21-.253-.133-3.677-2.438-5.975-6.5-5.975v-2.437c0-.108-.057-.197-.152-.24-.09-.046-.21-.033-.286.024l-5.954 4.61c-.064.043-.108.12-.108.208 0 .09.044.165.108.21l5.954 4.608c.044.044.108.057.165.057.044 0 .076-.013.12-.032.096-.044.153-.133.153-.24v-2.438c2.71 0 5.008.545 5.986 1.764zm15.437-5.092c.076-.07.09-.19.063-.298-.044-.108-.152-.165-.26-.165h-4.15l-1.823-4.697c-.044-.102-.146-.178-.254-.178-.11 0-.21.076-.255.178l-1.82 4.697h-4.153c-.108 0-.216.057-.26.165-.026.108-.013.23.063.298l3.16 3.15-.798 4.195c-.013.108.03.21.12.273.09.057.21.057.3 0l3.642-2.35 3.643 2.35c.044.03.1.044.146.044.043 0 .107-.013.15-.044.09-.064.134-.165.122-.273l-.8-4.196 3.16-3.15zm11.233 5.764c0-.076-.012-.133-.057-.178l-1.645-1.637c-.044-.05-.12-.077-.197-.077h-4.195c-.153 0-.273-.12-.273-.272V66.5h1.358c.102 0 .21-.057.254-.165.032-.108.013-.23-.064-.298L479.9 63.6c-.1-.11-.285-.11-.386 0l-2.438 2.437c-.076.07-.09.19-.063.298.044.108.152.165.26.165h1.352v2.438c0 1.352 1.085 2.437 2.438 2.437h5.82c.153 0 .273-.12.273-.273zm2.768-4.14c.076-.068.09-.19.063-.297-.044-.108-.152-.165-.26-.165h-1.352v-2.438c0-1.34-1.098-2.437-2.438-2.437h-5.82c-.153 0-.273.12-.273.273 0 .076.012.133.057.178l1.645 1.637c.044.05.12.077.197.077h4.195c.153 0 .273.12.273.273V66.5h-1.358c-.102 0-.21.057-.254.165-.032.108-.013.23.064.298L487.1 69.4c.056.052.113.077.19.077.076 0 .14-.025.196-.076l2.438-2.437z" fill="#FFF"/><path d="M363.956 60h-9.912c-1.128 0-2.044.916-2.044 2.044v9.912c0 1.128.916 2.044 2.044 2.044h9.912c1.128 0 2.044-.916 2.044-2.044v-9.912c0-1.128-.916-2.044-2.044-2.044zM359 64.375c1.45 0 2.625 1.176 2.625 2.625 0 1.45-1.176 2.625-2.625 2.625-1.45 0-2.625-1.176-2.625-2.625 0-1.45 1.176-2.625 2.625-2.625zm5.544 7.875c0 .164-.13.294-.294.294h-10.5c-.164 0-.294-.13-.294-.294v-6.125h1.552c-.062.28-.09.574-.09.875 0 2.256 1.826 4.08 4.082 4.08s4.08-1.824 4.08-4.08c0-.3-.026-.595-.088-.875h1.552v6.125zm0-8.75c0 .164-.13.294-.294.294h-1.75c-.164 0-.294-.13-.294-.294v-1.75c0-.164.13-.294.294-.294h1.75c.164 0 .294.13.294.294v1.75z" fill="#125688"/><path d="M336 21c0-.547-.453-1-1-1h-14c-.547 0-1 .453-1 1v14c0 .547.453 1 1 1h7.555v-6.22h-2v-2.303h2v-1.993c0-1.82 1.11-3.04 3.304-3.04.968 0 1.64.11 1.64.11v2.08H332c-.664 0-1 .374-1 1.03v1.813h2.336L333 29.78h-2V36h4c.547 0 1-.453 1-1V21zM374.336 25.328v10.336h3.328V25.328h-3.328zM383 29.664c0-1.336.852-2 1.852-2s1.812.664 1.812 2.336v5.664H390v-6c0-3-1.664-4.664-4-4.664-1.336 0-2.336.758-3 1.758l-.11-1.43h-3.28c0 .352.054 2.336.054 2.336v8H383v-6zm-7.016-6c1.235 0 2.016-.812 2.016-1.836-.016-1.03-.78-1.828-1.984-1.828-1.22 0-2.016.797-2.016 1.828 0 1.024.78 1.836 1.96 1.836h.024zM400 22.5c-8 0-8 0-8 5.664s0 5.664 8 5.664 8 0 8-5.664 0-5.664-8-5.664zm-2 8.664v-6l5 3-5 3zM424.75 106.25H424V104c0-1.652-1.348-3-3-3s-3 1.348-3 3v2.25h-.75c-.416 0-.75.334-.75.75v5.25c0 .416.334.75.75.75h7.5c.416 0 .75-.334.75-.75V107c0-.416-.334-.75-.75-.75zM419.5 104c0-.832.668-1.5 1.5-1.5s1.5.668 1.5 1.5v2.25h-3V104z" fill="#FFF"/><path d="M471.988 87.1c.024-.1.012-.2-.058-.282l-5.748-5.748c-.1-.1-.264-.1-.364 0l-5.748 5.748c-.07.082-.082.182-.058.282.04.093.14.152.24.152h1.248v5.496c0 .14.11.252.252.252h2.496c.14 0 .252-.11.252-.252V88.5h3v4.248c0 .14.11.252.252.252h2.496c.14 0 .252-.11.252-.252v-5.496h1.248c.1 0 .2-.06.24-.152z" fill="#9D1535"/><g><path d="M89.933 234.464h.794v6.952h-.794v-6.952zM93.788 234.464h.748l3.982 5.612v-5.612h.71v6.952h-.75l-3.982-5.554v5.554h-.708v-6.952M104.61 234.328c.222 0 .472.028.754.082.283.055.553.17.807.345.258.174.485.424.68.747.194.325.315.752.366 1.282h-.804c-.07-.388-.173-.694-.302-.92-.13-.22-.28-.388-.444-.5-.165-.115-.345-.188-.532-.22-.185-.033-.37-.05-.553-.05-.212 0-.412.03-.6.09-.182.057-.347.135-.486.236-.14.1-.25.22-.33.355-.083.135-.12.28-.12.436 0 .216.06.387.183.517.123.128.285.24.487.33.2.09.428.164.685.224.256.058.516.122.784.19.266.067.528.148.783.243.255.093.484.214.686.363.2.15.364.34.486.57.123.228.184.51.184.85 0 .308-.065.59-.2.843-.13.252-.32.465-.565.646-.248.175-.546.315-.893.41-.346.1-.737.147-1.168.147-.453 0-.844-.072-1.167-.213-.323-.143-.592-.334-.8-.574-.21-.24-.366-.52-.46-.84-.1-.32-.148-.66-.148-1.014h.778c0 .323.044.602.134.835.093.233.216.427.375.582.162.155.35.27.563.343.22.076.46.112.72.112.292 0 .558-.022.8-.067.245-.045.455-.118.63-.22.176-.1.31-.23.407-.387.1-.158.146-.35.146-.577 0-.33-.104-.584-.31-.762-.207-.178-.468-.32-.78-.42-.318-.106-.66-.196-1.025-.273-.367-.077-.707-.184-1.022-.317-.313-.132-.576-.317-.783-.553-.207-.236-.31-.564-.31-.986 0-.32.067-.603.207-.84.14-.235.322-.43.547-.586.224-.155.477-.27.76-.345.282-.076.566-.112.85-.112M114.89 234.464v.767h-2.3v6.186h-.78v-6.185h-2.29v-.766h5.37M117.493 234.464h.797v6.952h-.797v-6.952zM126.242 234.464v.767h-2.3v6.186h-.778v-6.185h-2.29v-.766h5.368M129.405 234.464v4.826c0 .247.056.462.16.645.11.184.254.34.432.466.18.13.384.22.62.283.236.062.48.092.74.092.263 0 .51-.033.748-.102.238-.068.447-.164.627-.29.178-.127.32-.282.43-.466.105-.185.16-.394.16-.627v-4.826h.777v4.99c0 .35-.084.657-.25.92-.166.26-.377.478-.642.65-.26.172-.556.3-.883.39-.33.084-.65.13-.967.13-.317 0-.637-.046-.96-.13-.324-.09-.618-.218-.878-.39-.264-.172-.474-.39-.643-.65-.164-.263-.247-.57-.247-.92v-4.99h.775M141.907 234.464v.767h-2.302v6.186h-.78v-6.185h-2.288v-.766h5.37M149.432 234.464v.767h-4.323v2.098h4.077v.787h-4.078v2.535h4.332v.766h-5.107v-6.952h5.097M174.798 234.46v.77h-2.302v6.185h-.778v-6.184h-2.29v-.77h5.37M182.322 234.46v.77h-4.32v2.098h4.077v.787H178v2.533h4.332v.767h-5.106v-6.954h5.096M188.05 234.328c.403 0 .77.043 1.11.13.334.087.633.23.89.422.25.195.466.45.634.763.17.314.287.693.36 1.14h-.785c-.054-.316-.153-.583-.3-.8-.144-.218-.322-.392-.528-.524-.21-.136-.432-.23-.67-.283-.24-.054-.478-.083-.712-.083-.297 0-.592.05-.885.15-.298.1-.56.263-.79.486-.236.223-.424.514-.57.874-.146.36-.22.802-.22 1.326s.074.968.22 1.33c.146.364.334.657.57.878.23.225.492.386.79.486.293.1.588.15.885.15.254 0 .503-.034.75-.105.247-.073.472-.185.68-.336.207-.153.38-.347.532-.584.143-.237.24-.52.293-.85h.776c-.056.455-.18.847-.37 1.18-.194.335-.425.61-.698.827-.276.215-.587.376-.925.48-.34.104-.683.156-1.037.156-.503 0-.96-.077-1.362-.23-.405-.152-.75-.378-1.035-.68-.286-.3-.504-.675-.654-1.125-.155-.45-.23-.975-.23-1.578 0-.602.077-1.13.234-1.577.157-.452.378-.826.666-1.13.287-.3.63-.524 1.034-.672.4-.15.85-.222 1.346-.222M194.635 234.46v2.956h3.847v-2.955h.777v6.955h-.778V238.2h-3.847v3.215h-.792v-6.954h.792M202.182 234.46h.748l3.98 5.616v-5.615h.71v6.955h-.75l-3.98-5.554v5.555h-.708v-6.954M213.6 235.094c-.295 0-.594.05-.893.15-.296.1-.564.263-.802.486-.233.223-.428.514-.574.874-.15.36-.224.802-.224 1.326s.074.968.225 1.33c.147.364.342.657.575.878.238.225.506.386.802.486.3.1.598.15.894.15.306 0 .604-.05.893-.15.295-.1.552-.263.782-.49.225-.225.407-.52.546-.883.14-.362.21-.803.21-1.32 0-.524-.07-.966-.212-1.326-.145-.36-.33-.65-.556-.874-.227-.223-.486-.385-.777-.485-.29-.1-.585-.15-.884-.15zm0-.766c.487 0 .927.072 1.325.217.4.147.74.37 1.02.665.282.3.502.675.656 1.126.16.455.236.985.236 1.594 0 .61-.076 1.138-.23 1.587-.15.452-.367.827-.645 1.128-.278.3-.62.525-1.02.674-.4.147-.847.223-1.34.223-.504 0-.96-.077-1.367-.23-.408-.152-.756-.378-1.045-.68-.287-.3-.51-.675-.665-1.125-.157-.45-.233-.975-.233-1.578 0-.602.08-1.13.237-1.577.16-.452.383-.826.68-1.13.287-.3.634-.524 1.038-.672.405-.15.858-.222 1.356-.222zM220.244 234.46v6.188h3.526v.767h-4.323v-6.954h.797M229.274 235.094c-.297 0-.595.05-.892.15-.3.1-.563.263-.8.486-.238.223-.43.514-.58.874-.15.36-.222.802-.222 1.326s.073.968.22 1.33c.15.364.344.657.58.878.24.225.503.386.802.486.297.1.595.15.892.15.305 0 .603-.05.894-.15.29-.1.55-.263.778-.49.224-.225.408-.52.55-.883.138-.362.207-.803.207-1.32 0-.524-.07-.966-.213-1.326-.143-.36-.327-.65-.553-.874-.227-.223-.486-.385-.78-.485-.29-.1-.586-.15-.883-.15zm0-.766c.488 0 .927.072 1.326.217.4.147.74.37 1.02.665.28.3.5.675.657 1.126.155.455.232.985.232 1.594 0 .61-.078 1.138-.23 1.587-.153.452-.367.827-.644 1.128-.282.3-.62.525-1.023.674-.4.147-.847.223-1.34.223-.503 0-.96-.077-1.367-.23-.408-.152-.756-.378-1.045-.68-.287-.3-.51-.675-.664-1.125-.155-.45-.23-.975-.23-1.578 0-.602.077-1.13.236-1.577.157-.452.382-.826.676-1.13.29-.3.638-.524 1.043-.672.402-.15.858-.222 1.354-.222zM234.954 237.93c0-.602.08-1.13.236-1.577.155-.452.377-.826.666-1.13.287-.3.63-.524 1.034-.672.4-.15.85-.222 1.346-.222.403 0 .77.043 1.11.13.334.087.633.23.89.422.252.195.465.45.634.763.166.314.287.693.36 1.14h-.787c-.05-.316-.15-.583-.3-.8-.142-.218-.32-.392-.525-.524-.21-.136-.432-.23-.67-.283-.24-.054-.475-.083-.712-.083-.297 0-.594.05-.885.15-.296.1-.56.263-.79.486-.236.223-.423.514-.57.874-.145.36-.22.802-.22 1.326s.09.966.27 1.326c.176.36.403.653.677.878.277.227.578.39.905.49.327.1.637.15.937.15.098 0 .227-.004.397-.014.167-.01.347-.023.54-.04.188-.015.374-.036.554-.06.178-.027.323-.056.43-.09v-1.99h-1.6v-.767h2.38v3.38c-.19.064-.41.12-.665.163-.256.048-.514.083-.77.108-.257.027-.495.046-.724.06-.224.012-.407.02-.54.02-.5 0-.966-.077-1.405-.225-.438-.15-.817-.375-1.14-.675-.323-.3-.582-.68-.77-1.132-.193-.454-.29-.98-.29-1.583M246.466 237.882l2.064-3.42h.954l-2.62 4.167v2.785h-.78v-2.786l-2.642-4.17h.973l2.05 3.422M90 245.5h160v.833H90v-.833zM158.14 235.93c-1.18 0-1.86 1.317-1.86 3.02 0 .82.366 1.158 1.026 1.158 1.215 0 1.856-1.432 1.856-3.04 0-.83-.474-1.138-1.023-1.138m-.99 4.86c-1.137 0-1.777-.703-1.777-1.89 0-2.083 1.25-3.64 2.914-3.64 1.22 0 1.78.767 1.78 1.904 0 2.03-1.205 3.626-2.918 3.626M164.68 233.92c-.235-.154-.5-.238-.782-.238-.46 0-.777.328-.904.925l-.147.808h1.45l-.37.622h-1.194l-.945 4.764c-.19.97-.413 1.536-.81 2.04l-.675-.366c.327-.452.524-.938.685-1.745l.914-4.693h-.538l.123-.622h.532l.136-.703c.14-.693.394-1.147.8-1.408.28-.194.608-.263.993-.263.45 0 .766.084 1.03.264l-.3.617M111.227 209.265l-1.03.514-2.897-3.23c-.485-.37-.95-.71-1.393-1.03-.443-.316-.88-.598-1.32-.844-.515-.27-1.046-.488-1.597-.66-.55-.17-1.155-.268-1.818-.292-.562-.024-1.125.01-1.688.11-.56.096-1.09.245-1.577.44-.514.22-.968.49-1.36.806-.39.32-.697.698-.914 1.14-.25.562-.37 1.064-.37 1.504 0 .44.075.838.22 1.192.15.356.35.66.606.918.255.257.52.482.786.68.59.415 1.215.75 1.876 1.007.66.26 1.333.474 2.016.642.784.2 1.58.376 2.387.534.806.16 1.604.338 2.385.532.708.198 1.395.4 2.056.606.66.21 1.27.46 1.833.753s1.078.637 1.54 1.027c.466.393.87.856 1.215 1.396.318.49.543 1.033.677 1.632.134.6.202 1.194.202 1.78 0 .587-.068 1.156-.202 1.707-.134.55-.286 1.034-.46 1.45-.317.636-.692 1.208-1.118 1.723-.428.516-.9.967-1.41 1.358-.59.443-1.203.807-1.84 1.103-.634.293-1.258.526-1.873.697-.56.17-1.11.287-1.647.347-.54.06-1.068.094-1.578.094-.515-.026-1.042-.07-1.58-.13-.54-.06-1.088-.126-1.648-.2-.443-.073-.896-.197-1.36-.37-.466-.17-.93-.364-1.394-.584-.343-.172-.687-.355-1.03-.55-.34-.196-.673-.38-.99-.55l-.513 1.76h-1.577l-2.387-8.662 1.36-.22c.34.612.705 1.207 1.1 1.78.39.576.794 1.132 1.21 1.672.44.538.91 1.045 1.412 1.522.5.478 1.058.91 1.67 1.302.613.392 1.233.696 1.854.918.625.22 1.24.367 1.853.44.613.075 1.204.097 1.783.075.572-.026 1.13-.087 1.67-.184.61-.1 1.172-.283 1.684-.554.517-.265.967-.573 1.36-.916.415-.37.763-.764 1.045-1.194.282-.426.484-.862.604-1.3.173-.612.26-1.176.26-1.69 0-.513-.08-.973-.236-1.376-.163-.405-.39-.765-.68-1.08-.297-.32-.625-.577-.993-.774-.66-.317-1.328-.586-2-.807-.67-.22-1.35-.417-2.035-.59-.71-.17-1.41-.32-2.11-.458-.698-.135-1.39-.286-2.076-.457-.734-.172-1.463-.393-2.183-.66-.72-.27-1.39-.565-2-.884-.61-.34-1.154-.707-1.632-1.1-.48-.39-.828-.793-1.045-1.21-.294-.513-.497-1.05-.61-1.616-.107-.56-.164-1.11-.164-1.648.023-.736.157-1.433.404-2.093.246-.66.577-1.247.99-1.76.49-.59 1.042-1.07 1.654-1.45.612-.38 1.26-.67 1.944-.864.782-.244 1.593-.387 2.423-.423.832-.038 1.662-.03 2.495.017.537.05 1.052.13 1.545.24.486.11.96.244 1.41.402.453.16.904.338 1.36.534.45.194.923.403 1.412.623l.404-1.246h1.358l2.273 6.678M134.016 206.435l1.748 5.626-1.125.346c-.227-.397-.484-.798-.763-1.205-.283-.406-.592-.786-.924-1.14-.332-.354-.696-.677-1.095-.97-.393-.29-.814-.54-1.248-.75-.42-.185-.857-.337-1.315-.453-.46-.114-.945-.18-1.466-.202-.253 0-.472.015-.66.047-.187.03-.342.093-.47.187-.122.093-.22.22-.278.376-.063.155-.094.357-.094.608v17.472l3.468.905v1h-9.875v-.966l3.22-.875v-17.473c0-.23-.033-.428-.096-.594-.06-.166-.146-.297-.248-.39-.103-.096-.223-.166-.36-.22-.135-.052-.277-.078-.423-.078-.457 0-.906.036-1.343.11-.44.072-.867.183-1.284.327-.58.23-1.134.52-1.653.877-.523.352-.99.748-1.407 1.184-.314.355-.593.725-.846 1.11-.25.385-.447.787-.593 1.204l-1.186-.375 1.844-5.688h18.472M155.7 206.466l2.09 5.813-.968.28c-.312-.416-.652-.812-1.028-1.186-.375-.375-.77-.73-1.19-1.062-.417-.314-.854-.606-1.314-.876-.454-.27-.926-.51-1.404-.72-.562-.25-1.153-.452-1.767-.61-.615-.156-1.235-.254-1.86-.296-.5-.04-.994-.05-1.484-.03-.49.02-.976.072-1.455.156-.27.06-.518.165-.747.31-.23.148-.415.324-.565.533-.144.187-.26.4-.34.638-.084.24-.127.486-.127.735v5.72h5.253l.97-4.032h1.184v9.566h-1.094l-1.092-4.032h-5.22v6.94c0 .247.05.504.158.765.103.258.23.492.374.7.167.23.366.424.595.58.23.158.47.255.72.298.497.08.99.143 1.48.186.493.04.987.053 1.487.03.627-.042 1.25-.135 1.876-.28.626-.146 1.238-.354 1.845-.625.56-.25 1.128-.573 1.703-.97.573-.396 1.14-.853 1.702-1.376.395-.377.784-.783 1.17-1.218.39-.438.77-.908 1.14-1.406l1.064.406-2.876 6.875h-18.436v-.967l2.718-.72v-18.378l-2.847-.78v-.97H155.7M168.163 206.34v1.094l-3.093.845 6.25 16.47 6.44-16.503-3.44-.906v-.905h8.437v.844l-2.875.748-8.283 20.253h-2.03l-8.19-20.252-2.595-.687v-1h9.378M202.815 206.466l2.096 5.813-.97.28c-.31-.416-.654-.812-1.03-1.186-.374-.375-.77-.73-1.186-1.062-.417-.314-.854-.606-1.314-.876-.458-.27-.928-.51-1.41-.72-.56-.25-1.147-.452-1.762-.61-.617-.156-1.233-.254-1.86-.296-.5-.04-.997-.05-1.484-.03-.49.02-.975.072-1.455.156-.272.06-.52.165-.75.31-.23.148-.416.324-.563.533-.146.187-.26.4-.343.638-.085.24-.127.486-.127.735v5.72h5.253l.968-4.032h1.186v9.566h-1.09l-1.095-4.032h-5.223v6.94c0 .247.053.504.162.765.097.258.224.492.37.7.168.23.368.424.594.58.23.158.47.255.717.298.502.08.998.143 1.487.186.49.04.985.053 1.486.03.623-.042 1.25-.135 1.876-.28.62-.146 1.24-.354 1.84-.625.562-.25 1.133-.573 1.703-.97.574-.396 1.145-.853 1.703-1.376.394-.377.79-.783 1.175-1.218.384-.438.767-.908 1.14-1.406l1.063.406-2.875 6.875h-18.442v-.967l2.723-.72v-18.378l-2.85-.78v-.97h18.285M214.468 206.466l10.627 17.315v-15.5l-3.157-.846v-.906h7.783v.97l-2.813.78v20.097h-2.876L212.125 209v17.498l3.19.878v.936h-7.815v-.936l2.843-.75V208.28l-2.844-.78v-1.034h6.968M247.33 212.473l-.83.417-2.346-2.615c-.398-.297-.773-.574-1.133-.833-.35-.258-.71-.484-1.065-.683-.417-.22-.85-.396-1.29-.536-.45-.138-.94-.217-1.472-.236-.46-.02-.91.008-1.37.088-.456.08-.88.198-1.28.355-.416.18-.78.398-1.096.656-.318.26-.563.564-.743.922-.197.456-.3.862-.3 1.22 0 .353.063.676.18.963.12.29.284.537.492.746.21.206.42.39.637.55.476.335.98.607 1.52.815.532.208 1.077.382 1.63.52.637.16 1.28.304 1.935.43.65.13 1.293.274 1.93.432.573.16 1.128.323 1.664.49.535.17 1.027.373 1.485.61.456.238.87.516 1.247.832.377.32.705.696.98 1.128.257.397.443.84.552 1.325.107.485.163.966.163 1.44 0 .477-.057.936-.164 1.38-.11.448-.234.84-.37 1.176-.258.515-.562.98-.908 1.396-.35.416-.728.783-1.145 1.098-.474.358-.97.656-1.486.89-.514.24-1.02.428-1.515.566-.456.14-.9.233-1.338.282-.438.05-.86.075-1.276.075-.417-.02-.843-.053-1.28-.103-.434-.048-.88-.105-1.335-.163-.356-.06-.723-.16-1.102-.296-.373-.14-.75-.297-1.128-.478-.276-.138-.553-.285-.83-.446-.28-.156-.544-.306-.802-.443l-.416 1.427h-1.28l-1.93-7.014 1.1-.177c.276.495.573.976.888 1.44.32.466.648.915.983 1.35.358.437.74.85 1.146 1.234.408.388.854.74 1.354 1.056.492.318.994.565 1.498.742.506.18 1.008.3 1.5.357.495.06.975.08 1.44.06.467-.018.92-.07 1.355-.148.494-.078.95-.228 1.37-.446.412-.217.777-.464 1.096-.74.337-.3.618-.62.848-.967.225-.347.39-.7.492-1.056.137-.496.205-.95.205-1.366 0-.417-.067-.786-.194-1.114-.13-.327-.307-.617-.55-.875-.235-.256-.502-.465-.8-.624-.536-.255-1.077-.475-1.618-.655-.548-.178-1.096-.334-1.652-.473-.574-.137-1.144-.263-1.71-.37-.56-.11-1.122-.233-1.675-.373-.595-.138-1.184-.317-1.767-.535-.588-.218-1.128-.455-1.622-.715-.497-.276-.933-.575-1.322-.89-.385-.318-.67-.644-.85-.98-.235-.417-.4-.852-.488-1.31-.088-.455-.132-.9-.132-1.336.018-.594.127-1.16.327-1.694.197-.536.464-1.013.803-1.427.396-.476.84-.867 1.334-1.176.497-.305 1.022-.54 1.577-.698.632-.196 1.286-.31 1.96-.34.674-.03 1.35-.026 2.02.015.437.04.854.104 1.25.194.393.088.777.198 1.143.325.364.13.735.273 1.1.43.366.16.75.33 1.143.506l.33-1.01h1.098l1.84 5.407" fill="#9D1535"/><path d="M94.827 250.733v.735h-2.203v5.922h-.744v-5.922h-2.193v-.735h5.14M97.44 250.733v2.827h3.68v-2.827h.744v6.657h-.743v-3.077h-3.68v3.077h-.763v-6.657h.762M109.097 250.733v.735h-4.137v2.008h3.904v.753h-3.904v2.426h4.146v.734h-4.89v-6.657h4.88M114.823 250.733h.763v6.657h-.763v-6.657zM118.04 250.733h.716l3.81 5.374v-5.374h.68v6.657h-.716l-3.81-5.318v5.318h-.68v-6.657M125.58 250.733h.716l3.81 5.374v-5.374h.68v6.657h-.717l-3.812-5.318v5.318h-.68v-6.657M136.037 251.338c-.286 0-.57.048-.856.143-.284.098-.54.253-.766.467-.226.213-.41.492-.553.836-.14.344-.213.767-.213 1.27 0 .5.072.926.214 1.273.144.347.328.627.554.84.227.215.482.37.767.466.286.096.57.144.857.144.29 0 .576-.048.856-.144.277-.096.526-.253.743-.47.217-.216.392-.498.525-.846.134-.346.2-.768.2-1.263 0-.503-.067-.926-.203-1.27-.138-.344-.314-.623-.53-.836-.218-.214-.466-.37-.745-.466-.28-.094-.56-.142-.845-.142zm0-.735c.464 0 .887.07 1.27.21.38.14.705.35.974.637.272.285.48.644.63 1.078.15.433.222.942.222 1.525 0 .582-.073 1.088-.22 1.52-.143.43-.35.79-.616 1.077-.266.29-.592.504-.977.647-.384.142-.813.213-1.283.213-.484 0-.92-.072-1.31-.218-.39-.145-.725-.362-1-.65-.276-.29-.488-.648-.637-1.08-.15-.43-.223-.934-.223-1.51s.075-1.08.227-1.51c.152-.43.367-.79.646-1.078.28-.29.612-.504 1-.647.387-.142.82-.214 1.297-.214zM143.37 256.656h.326l1.906-5.923h.837l-2.28 6.657h-1.32l-2.24-6.657h.884l1.887 5.923M148.44 254.99h2.76l-1.265-3.522h-.325l-1.17 3.523zm3.01.773h-3.263l-.52 1.627h-.837l2.315-6.657h1.32l2.38 6.657h-.875l-.52-1.627zM158.543 250.733v.735h-2.202v5.922h-.744v-5.922h-2.193v-.735h5.14M160.56 250.733h.762v6.657h-.762v-6.657zM166.697 251.338c-.287 0-.57.048-.856.143-.284.098-.54.253-.766.467-.226.213-.41.492-.553.836-.142.344-.213.767-.213 1.27 0 .5.07.926.214 1.273.143.347.328.627.554.84.227.215.482.37.767.466.286.096.57.144.857.144.29 0 .576-.048.855-.144.278-.096.527-.253.744-.47.217-.216.392-.498.525-.846.134-.346.2-.768.2-1.263 0-.503-.067-.926-.204-1.27-.137-.344-.313-.623-.53-.836-.217-.214-.465-.37-.744-.466-.28-.094-.56-.142-.845-.142zm0-.735c.464 0 .887.07 1.27.21.38.14.705.35.974.637.272.285.48.644.63 1.078.148.433.222.942.222 1.525 0 .582-.073 1.088-.22 1.52-.143.43-.35.79-.616 1.077-.267.29-.592.504-.977.647-.384.142-.813.213-1.283.213-.484 0-.92-.072-1.31-.218-.39-.145-.726-.362-1-.65-.277-.29-.49-.648-.637-1.08-.15-.43-.224-.934-.224-1.51s.076-1.08.228-1.51c.152-.43.367-.79.645-1.078.28-.29.612-.504 1-.647.387-.142.82-.214 1.297-.214zM171.837 250.733h.716l3.81 5.374v-5.374h.68v6.657h-.716l-3.81-5.318v5.318h-.68v-6.657M183.52 250.733v4.62c0 .237.053.443.156.62.103.176.24.324.41.446.173.12.37.21.594.267.224.06.46.09.71.09.25 0 .49-.033.715-.098.228-.067.427-.16.598-.28.172-.12.308-.27.41-.447.103-.176.156-.376.156-.6v-4.62h.742v4.78c0 .334-.08.626-.237.877-.158.25-.362.46-.614.623-.25.164-.53.288-.845.372-.312.083-.62.125-.925.125-.303 0-.61-.042-.92-.125-.31-.084-.59-.208-.842-.372-.25-.164-.454-.372-.613-.623-.158-.25-.237-.543-.237-.878v-4.78h.743M190.327 250.733h.716l3.81 5.374v-5.374h.68v6.657h-.717l-3.81-5.318v5.318h-.68v-6.657M198.06 250.733h.764v6.657h-.763v-6.657zM203.473 256.656h.325l1.905-5.923h.836l-2.278 6.657h-1.32l-2.24-6.657h.882l1.89 5.923M213.215 250.733v.735h-4.138v2.008h3.904v.753h-3.903v2.426h4.147v.734h-4.89v-6.657h4.88M218.566 253.653c.174 0 .344-.028.513-.084.166-.057.313-.136.437-.238.124-.102.224-.228.302-.376.077-.15.116-.32.116-.512 0-.353-.126-.604-.377-.753-.253-.148-.596-.222-1.03-.222h-.737c-.163 0-.332.002-.51.005l-.507.008c-.16.005-.308.008-.437.01-.132.005-.232.01-.3.015v2.148h2.526zm-.605.63h-1.92v3.107h-.744v-6.63c.15-.005.368-.01.656-.013l.912-.008c.317-.004.627-.007.924-.007h.697c.69 0 1.23.13 1.628.386.397.256.594.673.594 1.25 0 .272-.048.522-.148.748-.1.226-.237.423-.41.59-.174.168-.377.3-.61.4-.232.1-.48.155-.748.168l2.342 3.114h-.956l-2.217-3.106zM225.22 250.603c.213 0 .453.027.723.08.27.053.528.162.773.33.245.167.46.406.646.715.187.31.305.72.355 1.228h-.773c-.068-.372-.165-.666-.29-.88-.122-.213-.264-.374-.423-.483-.157-.108-.326-.177-.506-.21-.182-.03-.358-.045-.53-.045-.207 0-.398.028-.576.083-.177.057-.33.133-.466.23-.133.095-.24.21-.316.34-.08.13-.117.268-.117.417 0 .204.058.37.176.493.12.124.274.23.466.316s.41.158.657.214c.244.055.493.116.748.18.255.066.505.143.75.233.246.09.466.206.658.35.192.142.347.323.465.543.12.22.18.49.18.813 0 .297-.065.566-.19.808-.13.24-.31.447-.546.618-.235.17-.52.303-.85.395-.33.094-.706.14-1.12.14-.434 0-.806-.068-1.117-.204-.31-.136-.565-.32-.767-.548-.2-.23-.348-.498-.44-.805-.093-.306-.14-.63-.14-.97h.744c0 .31.044.576.13.798.087.224.207.41.36.56.15.148.332.258.54.33.207.07.436.106.684.106.28 0 .537-.02.77-.065.233-.043.433-.112.6-.21.17-.094.298-.22.392-.37.093-.15.14-.336.14-.553 0-.316-.1-.56-.298-.73-.2-.17-.45-.305-.75-.404-.302-.1-.628-.186-.98-.26-.35-.075-.676-.176-.978-.303-.3-.127-.55-.303-.748-.53-.2-.226-.3-.54-.3-.943 0-.31.068-.578.2-.804.134-.227.31-.414.523-.563.213-.148.455-.26.725-.33.27-.07.543-.107.816-.107M230.097 250.733h.762v6.657h-.763v-6.657zM237.998 250.733v.735h-2.202v5.922h-.746v-5.922h-2.193v-.735h5.14M242.13 254.006l1.976-3.273h.91l-2.51 3.988v2.67h-.742v-2.67l-2.53-3.987h.93l1.967 3.273M248.044 252.153c.242 0 .363-.135.363-.406 0-.116-.026-.2-.077-.25-.05-.05-.15-.076-.297-.076-.13 0-.252.007-.363.018v.715h.374zm-.223.266h-.15v1.104h-.314v-2.363c.103-.013.212-.024.322-.034.11-.01.224-.013.344-.013.252 0 .434.048.544.143.11.096.165.243.165.442 0 .206-.052.373-.158.5-.107.13-.242.2-.404.215l.71 1.11h-.38l-.677-1.104zm.22-1.747c-.176 0-.347.028-.52.085-.172.056-.327.15-.466.28-.138.134-.25.306-.338.52-.087.212-.13.476-.13.79 0 .304.04.56.124.773.083.212.192.384.33.52.133.132.288.23.46.29.175.063.353.093.54.093.18 0 .354-.03.524-.092.17-.06.32-.158.45-.29.13-.136.233-.31.312-.522.076-.214.115-.47.115-.77 0-.31-.038-.572-.117-.786-.08-.213-.185-.385-.316-.517-.13-.132-.28-.227-.45-.285-.17-.058-.342-.087-.518-.087zm0-.335c.547 0 .976.166 1.286.498.308.333.463.837.463 1.512 0 .673-.153 1.176-.457 1.512-.304.336-.735.504-1.294.504-.273 0-.52-.04-.74-.12-.22-.083-.407-.206-.565-.373-.158-.165-.278-.374-.363-.628-.086-.252-.128-.55-.128-.894 0-.332.04-.624.122-.875.08-.252.2-.46.355-.63.156-.167.344-.293.567-.38.223-.083.474-.125.752-.125z" fill="#B2B3B2"/><g><path d="M0 162v113.28l36.164 23.84 36.665-23.84V162.043L0 162z" fill="#9D1535"/><g fill="#FFF"><path d="M46.383 265.087c-4.827 3.503-9.628 6.99-9.643 7.002l-.226.157.008 6.817c.93-.678 3.5-2.556 6.524-4.77 3.963-2.894 9.122-6.67 13.966-10.232h-.002c.013-.007.027-.02.05-.035.044-.032.11-.078.19-.14.166-.123.402-.306.685-.537.567-.463 1.324-1.127 2.074-1.93 1.51-1.602 2.977-3.757 2.97-5.88 0-2.506-1.992-5.24-8.938-7.336l-.04.625c3.43 1.804 4.602 3.625 4.608 5.25-.022 1.822-1.432 3.137-2.234 3.753l.004.008-.275.194c-.088.06-4.918 3.567-9.722 7.053zm-9.85 6.556l-.066-.19c.005-.003 16.634-12.072 18.985-13.772l-.006-.006.25-.17c.014-.013.025-.02.025-.02h.004c.647-.44 2.233-1.788 2.215-3.405 0-1.286-.94-2.953-4.44-4.76l-.194-.098.118-1.895.4.117c7.348 2.11 9.822 5.1 9.823 8.096-.058 4.85-6.22 9.022-6.262 9.077-9.63 7.083-20.657 15.12-20.657 15.12l-.2.147-.006-.283-.08-7.207.09-.75z"/><path d="M15.202 256.892v-13.964c0-1.12.055-3.175.055-4.243-1.705-.623-4.816-2.63-6.093-4.676v26.412l27.368 19.45v-8.463l-21.33-14.518"/><path d="M43.522 248.702c-.347 0-.696.31-.696.702v2.932c0 .38.35.707.696.707.372 0 .712-.326.712-.707v-2.932c0-.38-.334-.702-.712-.702zm1.9 3.065c0 .904-.864 1.642-1.9 1.642-1.02 0-1.88-.74-1.88-1.643v-1.785c0-.906.874-1.644 1.88-1.644 1.028 0 1.9.738 1.9 1.644v1.785zm-6.928 1.583H37.24l1.846-4.588H37.6c-.2 0-.37.147-.37.33h-.228v-.658h3.486l-1.994 4.916zm.277 6.696c-.688.022-1.376.32-1.902.9-.526.58-.805 1.334-.823 2.092h-.074c-.016-.758-.293-1.513-.817-2.092-.528-.58-1.215-.878-1.908-.9v-.078c.693-.02 1.38-.32 1.908-.9.524-.58.8-1.332.818-2.09h.075c.018.758.297 1.51.823 2.09.526.58 1.214.88 1.903.9v.078zm-6.787-8.132c0-.606.425-1.11 1.018-1.385-.395-.213-.654-.57-.654-.99 0-.647.67-1.176 1.492-1.176.825 0 1.496.53 1.496 1.177 0 .42-.28.797-.664.996.59.277 1.027.772 1.027 1.378 0 .752-.83 1.512-1.86 1.512-1.026 0-1.854-.76-1.854-1.512zm-1.264 1.436h-3.41v-.318h.75c.197 0 .365-.148.365-.33v-3.708c0-.187-.194-.332-.47-.332v-.228h1.656v4.268c0 .182.166.33.363.33h.746v.318zm5.844-8.926h.083c-5.552-.824-13.968-3.156-19.59-5.225v17.2l19.427 12.862 19.52-13.64v-7.46c-4.166-1.665-12.23-2.67-19.44-3.738zm-2.726 5.97c.262 0 .478-.194.478-.435v-.832c0-.24-.216-.44-.478-.44-.26 0-.47.2-.47.44v.83c0 .242.21.437.47.437zm.624 2.126v-1.218c0-.314-.283-.575-.624-.575-.34 0-.624.26-.624.575v1.218c0 .313.285.575.624.575.34 0 .624-.262.624-.575zM17.148 218.275l-.164.076M45.8 214.298l.134-.307-.134.308zm17.76 29.414v-21.788l-17.27-7.416.224 5.505 11.682 4.678v16.257c0 .04.004.083.006.125 1.832.66 3.728 1.517 5.36 2.64zm.135.92c-1.718-1.297-3.856-2.273-5.916-3l-.194-.07-.027-.2c-.02-.134-.03-.27-.034-.415v-15.802l-11.665-4.673-.26-6.47-.022-.527 18.653 8.01v23.556l-.535-.408zM36.458 194.367c-.266 0-.487.084-.577.203-.01-.016-.02-.03-.026-.047.033.088.14.162.283.207.078-.07.195-.115.32-.115.13 0 .243.046.32.115.12-.036.208-.09.258-.16-.092-.12-.314-.203-.577-.203M36.02 194.233c.11-.06.268-.096.438-.096.152 0 .29.032.4.08.056-.052.097-.11.117-.178-.06-.19-.282-.33-.546-.33-.27 0-.49.14-.55.33-.01-.033-.02-.066-.02-.1 0 .112.063.216.16.293M36.26 193.528c.054-.013.11-.022.17-.022.047 0 .092.007.14.016.038-.043.063-.1.063-.165 0-.13-.1-.235-.222-.235s-.224.105-.224.235c0 .07.03.128.074.17"/><path d="M30.496 220.245l.756 4.35.09.214.083-.176.08-4.304 2.264.67.13-.107-2.467-.85-.937.202zm16.818 5.31l1.125 4.006-.06-3.7 1.616.392.095-.075-1.765-.62h-1.01zM37.34 227.6l-9.726-2.75-.006.006v.31l9.73 2.677.003-.244zm18.143 2.28l-1.35-.415h-1.057l.916.256.142 3.04.17.174-.03-3.158 1.143.248.066-.143zm-.786 7.666c.058-.265.19-1.072.823-1.333 0 0 .628.753.714 1.62l-1.537-.287zM52.504 231l-5.867-1.436-.48-7.983 3.174 1.156-.29.49L52.504 231zm-1.98 4.382s.053-.76.57-1.22c0 0 .486.422.614 1.33 0 .027.01.053.01.08l-1.195-.19zm1.18 4.24c-.37-.088-.76-.16-1.16-.252v-3.614l1.16.177v3.69zm-1.885-.398c-.395-.085-.805-.152-1.226-.237v-3.613l1.225.19v3.66zm-.64-5.46s.498.422.628 1.33c.005.026.01.05.01.078l-1.224-.19s.053-.757.586-1.218zm-5.717 4.367c-.355-.047-.805-.11-1.277-.174v-4.198s-.016-.587.678-1.135c0 0 .476.65.597 1.447.006.027.003.057.003.088v3.973zm-1.97-6.19c0-.325.228-.59.508-.59s.51.265.51.59c0 .326-.23.592-.51.592s-.508-.266-.508-.59zm-8.263-.383s-.007-.96.804-1.568c0 0 .543.58.703 1.705.005.033.013.064.013.1l-1.52-.238zm-2.678-.526s-.008-1.01.843-1.65c0 0 .576.61.744 1.797.002.033.013.068.013.104l-1.6-.25zm6.28-21.143l-.028-1.164.235-.488 9.114 4.13v.612l-.442.252.028.432-8.908-3.775zm7.53 10.115l-1.275-.452v-4.68s-.017-.588.678-1.135c0 0 .476.648.595 1.445.005.03.003.058.003.09V220zm-2.024-.718l-1.522-.522v-4.632s.14-.784.814-1.383c0 0 .708.967.708 1.78v4.757zm-2.266-.796l-1.663-.573v-4.554s.157-1.084.893-1.518c0 0 .77 1.09.77 1.902v4.744zm-12.227 5.98l.64-8.11.355-.796 5.868 2.103-.217.49 2.416 8.838-9.06-2.526zm-.067-9.303l.002-1.575-.406-.204v-.528l8.973-4.623.222.577.26 17.095-2.117-7.785.077-.175.094-.222-.094.222.154-.047-.172-4.514c-.015-.28-.422-1.347-.702-1.463-.273.26-.586 1.23-.556 1.774l.135 3.198-1.015-.364-.078-2.09c-.02-.265-.41-1.342-.703-1.463-.274.26-.587 1.23-.556 1.775l.055 1.318-.832-.3-.01-.298c-.014-.284-.406-1.342-.702-1.465-.274.26-.482 1.15-.52 1.32l-.897-.324h-.258l-.354.162zm3.77-7.352v1.095l-.195.254.5-.217v-2.774l.658-.84.752.08v2.92l.326-.142.02-3.018 1.338.728.074-.382-1.363-.696 1.598-.672.98 3.547-7.817 4.076 3.13-3.957zm5.876-3.783l-.867 3.372-.868-3.372h1.734zm.417 0l1.49.786-1.24.54.314.347 1.33-.442v2.72l.397.2.036-2.693.492-.157.554.673v2.724l.55.276-.2-.256v-1.583l3.278 4.078-7.932-3.565.933-3.647zm-19.305 27.315l2.834.493v3.147c-.956-.2-2.27-.47-2.835-.606v-3.035zm1.496-2.53s1.476.86 1.387 2.362l-2.815-.508s-.08-1.213 1.43-1.856zm30.022-3.92l-.708-1.594.464-.75-3.575-1.352-.317-7.835.51-.295-.052-.885-.592-.245-4.244-5.264.006-.572.633-.064-1.295-1.696-1.166.307v-.504l-.62-.354v.238l-1.345-.242-2.324-.07-1.418.312.007-.144-.427.26v.624l-.02-.01-1.372-.258-1.303 1.695.637.064v1.276l-4.388 5.36.014.575.432.298-.024 1.493-2.832 1.29-1.98-.665-.56.24 2.533.876h-.002l2.73-1.282.383.636-.64 8.11-3.186 1.297.844-8.14-.126-.603-.137.63-.8 8.078-6.75-1.712v-5.678l-.03.013v15.654c1.145.325 3.404.844 6.842 1.447v-8.615l-6.794-1.756v-.19l6.786 1.754.008-.004v-.254l-.032-.01-6.762-1.734v-.254l6.786 1.742 3.757-1.538.043.01 9.703 2.744v-.04l1.217.298-.01-4.455s.216-.92.894-1.52c0 0 .77 1.09.77 1.905 0 .46.007 3.593.01 4.476l.927.228v-4.46s.14-.78.815-1.38c0 0 .71.967.71 1.78v4.432l.84.204v-4.374s-.015-.59.68-1.137c0 0 .476.65.596 1.447.003.028.003.06.003.088v4.29l1.895.463.003.135 6.843 1.69-.34.164-6.496-1.6v.138l6.397 1.592-.236.137-6.294-1.574.002-.012-9.234-2.225v-.003l-9.73-2.676v10.705c-.447-.07-.917-.138-1.386-.214v-4.67l-1.315.342.04 4.12c1.633.274 3.5.563 5.605.858v-4.952l1.6.246-.017 4.92-1.09-.147c.704.097 1.433.195 2.188.29v-4.81l1.517.234v4.767l-1.218-.15c1.32.168 2.72.336 4.2.505.807.09 1.582.183 2.33.278l-.046-.008v-4.57c0-1.644 1.856-2.727 1.877-2.74l.035-.02.034.028c.083.07 2.01 1.756 2.01 3.453v4.39l-.125-.016v-4.373c0-1.52-1.674-3.096-1.932-3.33-.262.163-1.777 1.164-1.777 2.61v4.587c.286.036.563.073.84.11l-.438-.064v-4.235s-.018-.588.677-1.137c0 0 .477.653.597 1.45.003.027.002.058.002.088v4.01c5.433.74 9.166 1.52 11.485 2.093l-.096-7.934h.015l-.016-.262.434-.25.007-.302-.672-.15-2.806-5.913 6.17 2.09v6.494l-3.02-.757.003.225 3.018.71v.24l-3.017-.71.005.106 3.013.693v.19l-3.01-.693.072 6.248c.503.124.937.24 1.302.34l-.023-2.338 1.563.28c0 .548.02 1.605.028 2.527l-.256-.08c.198.066.3.102.3.102l.127.04v-13.813l-6.388-2.188zm-26.056 10.58l.91.156-.91-.155zm0 0c-.046-.01-.096-.02-.144-.026.047.006.098.016.144.025zm13.9-32.837l1.164.813.03-1.15v-.072l-1.587-.903h-2.05l-1.383.904v1.305l1.178-.897h2.648zm13.216 31.857c-.17 0-.308.187-.308.417 0 .23.137.416.308.416.17 0 .305-.186.305-.416 0-.23-.136-.417-.305-.417zm-19.76-4.62c-.25 0-.45.24-.45.54 0 .3.2.544.45.544s.453-.244.453-.544c0-.3-.202-.542-.452-.542zm2.64.583c-.238 0-.43.23-.43.515 0 .286.192.516.43.516.236 0 .427-.23.427-.517 0-.285-.192-.515-.428-.515zm-8.155-.07c-.006.302-.128.546-.266.54-.14 0-.248-.248-.24-.55.004-.302.127-.545.264-.54.143 0 .25.25.243.55zm-.898.918l1.236-.34c0-1.042-.59-1.785-.59-1.785s-.647.932-.647 2.126zm24.257 2.79c-.175 0-.316.186-.316.417 0 .23.142.415.317.415.176 0 .314-.185.314-.415 0-.23-.137-.416-.313-.416zm-14.6-33.26l1.63-6.006.075-.037-.833 5.657h-.3l-.573.387zm2.56-.39H35.87l.614-5.653.673 5.652zm-.412-5.616l1.664 5.96-.605-.34h-.302l-.834-5.657.075.037zm1.015 5.968l1.074.585-2.1-6.805-.554-.007-1.952 6.862 1.077-.634h2.455zm-19.067 23.135l.235-.13.25-4.52 2.374.76.227-.19-2.7-.93-.99.36.51 4.44.093.21z"/><path d="M22.744 215.88l.062.022 1.92.646 2.828-1.29.025-1.46-4.836 2.083zm-1.197 4.157l-2.377-.758-.25 4.517-.232.13.005.006.235-.13.25-4.52 2.374.76.227-.19-.01-.005-.223.19zm-10.337.79l-2.046.877v5.46c0 3.1 2.18 5.115 5.332 6.12.593.237 1.516.47 2.488.695v-.698c-3.887-2.37-5.144-6.916-.623-8.983l.643-.253V224l.037.01v-5.678l5.148-2.21 2.535.877-2.546-.882-10.967 4.708z"/></g></g></g><path d="M418.46 30.352c.08-.055.11-.15.11-.22 0-.093-.03-.187-.11-.24l-2.35-2.353c-.126-.134-.33-.134-.462 0l-2.836 2.812-2.242-2.258c-.086-.094-.234-.11-.367-.078-.133.054-.203.187-.203.32v7.328c0 .188.148.336.336.336h7.328c.188 0 .336-.148.336-.336 0-.094-.04-.18-.11-.234l-2.242-2.242 2.813-2.836zM426 20.336c0-.188-.148-.336-.336-.336h-7.328c-.133 0-.266.07-.32.203-.032.133-.016.28.078.367l2.258 2.242-2.836 2.836c-.125.133-.125.336 0 .46l2.375 2.376c.055.055.15.086.243.086.07 0 .164-.03.22-.086l2.834-2.836 2.243 2.258c.07.055.14.094.234.094.04 0 .094 0 .133-.016.133-.054.203-.187.203-.32v-7.328z" fill="#FFF"/><g fill="#9D1535"><path d="M328.026 110.26c-.558-.558-.56-1.46-.003-2.018l7.076-7.076c.556-.556 1.455-.56 2.017.003.558.556.56 1.46.003 2.016l-7.076 7.076c-.557.557-1.456.56-2.018-.002z"/><path d="M320.883 101.17c.558-.56 1.46-.56 2.018-.004l7.077 7.076c.556.557.56 1.456-.003 2.018-.558.558-1.46.56-2.018.002l-7.076-7.076c-.556-.556-.56-1.456.003-2.017z"/></g><path d="M464.668 0C462.644 0 461 1.644 461 3.668c0 .65.167 1.273.473 1.794l2.99 5.425c.04.065.114.113.205.113.076 0 .167-.048.205-.113l2.99-5.425c.29-.52.474-1.144.474-1.794 0-2.024-1.644-3.668-3.67-3.668zm0 5.043c-.762 0-1.375-.612-1.375-1.375 0-.768.613-1.375 1.375-1.375.763 0 1.375.607 1.375 1.375 0 .763-.612 1.375-1.375 1.375zM477.5 0c-3.045 0-5.5 2.455-5.5 5.5s2.455 5.5 5.5 5.5 5.5-2.455 5.5-5.5-2.455-5.5-5.5-5.5zm2.433 7.933l-2.927-1.654c-.054-.044-.102-.082-.156-.13-.177-.177-.268-.42-.268-.65V1.375h.918l.838 3.668 2.245 2.24-.65.65z" fill="#000"/><path d="M371.252 0c-3.726 0-6.75 3.023-6.75 6.75 0 1.336.378 2.566 1.046 3.604l-5.106 5.08c-.59.588-.59 1.546 0 2.127.29.29.668.44 1.063.44.37 0 .765-.15 1.064-.44l5.08-5.106c1.036.668 2.266 1.046 3.602 1.046 3.727 0 6.75-3.023 6.75-6.75S374.98 0 371.252 0zm0 11.25c-2.478 0-4.5-2.02-4.5-4.5s2.022-4.5 4.5-4.5c2.48 0 4.5 2.02 4.5 4.5s-2.02 4.5-4.5 4.5z" fill="#FFF"/><path d="M395 0c.555 0 1 .445 1 1v8c0 .555-.445 1-1 1h-1.664V6.664h-10.672V10H381c-.555 0-1-.445-1-1V1c0-.555.445-1 1-1h14zm-2 4c.555 0 1-.445 1-1 0-.555-.445-1-1-1-.555 0-1 .445-1 1 0 .555.445 1 1 1zm-9 4h8v7.664c0 .188-.148.336-.336.336h-7.328c-.188 0-.336-.148-.336-.336V8z" fill="#9D1535"/></g></svg>